<?xml version="1.0" encoding="UTF-8" standalone="no"?>
<!-- Created with Inkscape (http://www.inkscape.org/) -->

<svg
   width="32"
   height="32"
   viewBox="0 0 8.4666664 8.4666666"
   version="1.1"
   id="svg5"
   xml:space="preserve"
   inkscape:version="1.2.2 (732a01da63, 2022-12-09)"
   sodipodi:docname="collapsed.svg"
   xmlns:inkscape="http://www.inkscape.org/namespaces/inkscape"
   xmlns:sodipodi="http://sodipodi.sourceforge.net/DTD/sodipodi-0.dtd"
   xmlns="http://www.w3.org/2000/svg"
   xmlns:svg="http://www.w3.org/2000/svg"><sodipodi:namedview
     id="namedview7"
     pagecolor="#505050"
     bordercolor="#eeeeee"
     borderopacity="1"
     inkscape:showpageshadow="0"
     inkscape:pageopacity="0"
     inkscape:pagecheckerboard="0"
     inkscape:deskcolor="#505050"
     inkscape:document-units="mm"
     showgrid="false"
     inkscape:zoom="21.22606"
     inkscape:cx="15.264255"
     inkscape:cy="18.562088"
     inkscape:window-width="3440"
     inkscape:window-height="1369"
     inkscape:window-x="-8"
     inkscape:window-y="-8"
     inkscape:window-maximized="1"
     inkscape:current-layer="layer1" /><defs
     id="defs2" /><g
     inkscape:label="Ebene 1"
     inkscape:groupmode="layer"
     id="layer1"><path
       style="fill:#a9b7c6;fill-rule:evenodd;stroke:#ff6647;stroke-width:0.0162607;stroke-linecap:round;stroke-linejoin:round"
       d="M 2.9263735,7.1598287 C 2.8333037,7.1420556 2.7210562,7.0823011 2.6468065,7.0110031 2.533651,6.9023455 2.4756919,6.764991 2.4766201,6.6076867 2.4773986,6.4758407 2.5064439,6.3982995 2.5930935,6.2967467 2.6906792,6.1823768 3.6378439,5.219019 4.182464,4.6802035 4.4288433,4.4364501 4.6305085,4.2331662 4.630609,4.2284614 4.6307097,4.223756 4.1788796,3.7697784 3.6265427,3.219621 3.0742056,2.6694637 2.599873,2.1887095 2.5724699,2.1512784 2.5058783,2.0603177 2.4792734,1.9722799 2.4792734,1.8428833 c 0,-0.230666 0.109737,-0.3981838 0.3286402,-0.5016821 0.1214296,-0.057413 0.3215399,-0.060032 0.4384781,-0.00574 0.092126,0.042772 0.3123511,0.2516513 1.4365139,1.3625065 0.7335666,0.7248828 1.219748,1.2226596 1.2477084,1.2774668 0.04019,0.078779 0.059189,0.1655122 0.05944,0.2713631 C 5.990465,4.4189975 5.956357,4.4727054 5.6269367,4.8186171 5.3195551,5.141385 3.7936366,6.6448886 3.4537462,6.9598832 3.2925802,7.1092447 3.2433771,7.1397388 3.1296127,7.1607691 c -0.072901,0.013477 -0.129107,0.013216 -0.2032392,-9.36e-4 z"
       id="path377" /></g></svg>
