<?xml version="1.0" encoding="UTF-8" standalone="no"?>
<!-- Created with Inkscape (http://www.inkscape.org/) -->

<svg
   width="32"
   height="32"
   viewBox="0 0 8.4666664 8.4666666"
   version="1.1"
   id="svg5"
   xml:space="preserve"
   inkscape:version="1.2.2 (732a01da63, 2022-12-09)"
   sodipodi:docname="ellapsed.svg"
   xmlns:inkscape="http://www.inkscape.org/namespaces/inkscape"
   xmlns:sodipodi="http://sodipodi.sourceforge.net/DTD/sodipodi-0.dtd"
   xmlns="http://www.w3.org/2000/svg"
   xmlns:svg="http://www.w3.org/2000/svg"><sodipodi:namedview
     id="namedview7"
     pagecolor="#505050"
     bordercolor="#eeeeee"
     borderopacity="1"
     inkscape:showpageshadow="0"
     inkscape:pageopacity="0"
     inkscape:pagecheckerboard="0"
     inkscape:deskcolor="#505050"
     inkscape:document-units="mm"
     showgrid="false"
     inkscape:zoom="21.22606"
     inkscape:cx="15.264255"
     inkscape:cy="18.562088"
     inkscape:window-width="3440"
     inkscape:window-height="1369"
     inkscape:window-x="-8"
     inkscape:window-y="-8"
     inkscape:window-maximized="1"
     inkscape:current-layer="layer1" /><defs
     id="defs2" /><g
     inkscape:label="Ebene 1"
     inkscape:groupmode="layer"
     id="layer1"><path
       style="fill:#a9b7c6;fill-rule:evenodd;stroke:#ff6647;stroke-width:0.0162607;stroke-linecap:round;stroke-linejoin:round"
       d="M 1.306838,2.9263735 C 1.324611,2.8333035 1.384366,2.7210562 1.4556636,2.6468065 1.5643212,2.533651 1.7016757,2.4756919 1.85898,2.4766201 1.990826,2.4773986 2.0683672,2.5064441 2.16992,2.5930935 2.2842899,2.6906795 3.2476477,3.6378439 3.7864632,4.182464 4.0302166,4.4288433 4.2335005,4.6305085 4.2382053,4.630609 4.2429153,4.6307097 4.6968883,4.1788796 5.2470457,3.6265427 5.797203,3.0742056 6.2779572,2.599873 6.3153883,2.5724699 c 0.090961,-0.066592 0.1789985,-0.093197 0.3083951,-0.093197 0.230666,0 0.3981838,0.109737 0.5016821,0.3286402 0.057413,0.1214296 0.060032,0.3215399 0.00574,0.4384781 C 7.0884335,3.3385177 6.8795542,3.5587428 5.768699,4.6829056 5.0438162,5.4164722 4.5460394,5.9026536 4.4912322,5.930614 4.4124532,5.970804 4.32572,5.989803 4.2198691,5.990054 4.0476692,5.990465 3.9939613,5.956357 3.6480496,5.6269367 3.3252817,5.3195551 1.8217781,3.7936366 1.5067835,3.4537462 1.357422,3.2925802 1.3269279,3.2433771 1.3058976,3.1296127 1.2924206,3.0567117 1.2926816,3.0005057 1.3068336,2.9263735 Z"
       id="path377" /></g></svg>
