<?xml version="1.0" encoding="UTF-8" standalone="no"?>
<!-- Created with Inkscape (http://www.inkscape.org/) -->

<svg
   width="512"
   height="512"
   viewBox="0 0 135.46667 135.46667"
   version="1.1"
   id="svg5"
   xml:space="preserve"
   sodipodi:docname="full_logo.svg"
   inkscape:version="1.2.2 (732a01da63, 2022-12-09)"
   xmlns:inkscape="http://www.inkscape.org/namespaces/inkscape"
   xmlns:sodipodi="http://sodipodi.sourceforge.net/DTD/sodipodi-0.dtd"
   xmlns:xlink="http://www.w3.org/1999/xlink"
   xmlns="http://www.w3.org/2000/svg"
   xmlns:svg="http://www.w3.org/2000/svg"><sodipodi:namedview
     id="namedview7"
     pagecolor="#505050"
     bordercolor="#eeeeee"
     borderopacity="1"
     inkscape:showpageshadow="0"
     inkscape:pageopacity="0"
     inkscape:pagecheckerboard="0"
     inkscape:deskcolor="#505050"
     inkscape:document-units="mm"
     showgrid="false"
     inkscape:zoom="1.3266287"
     inkscape:cx="94.223799"
     inkscape:cy="238.95155"
     inkscape:window-width="3440"
     inkscape:window-height="1369"
     inkscape:window-x="-8"
     inkscape:window-y="-8"
     inkscape:window-maximized="1"
     inkscape:current-layer="layer1" /><defs
     id="defs2"><linearGradient
       inkscape:collect="always"
       id="linearGradient11404"><stop
         style="stop-color:#ffaa00;stop-opacity:1;"
         offset="0"
         id="stop11400" /><stop
         style="stop-color:#ff2a00;stop-opacity:1;"
         offset="1"
         id="stop11402" /></linearGradient><linearGradient
       inkscape:collect="always"
       id="linearGradient4827"><stop
         style="stop-color:#ffaa00;stop-opacity:1;"
         offset="0"
         id="stop4823" /><stop
         style="stop-color:#ff2a00;stop-opacity:1;"
         offset="1"
         id="stop4825" /></linearGradient><linearGradient
       inkscape:collect="always"
       xlink:href="#linearGradient4827"
       id="linearGradient4829"
       x1="92.925064"
       y1="136.41673"
       x2="119.1948"
       y2="136.41673"
       gradientUnits="userSpaceOnUse"
       gradientTransform="matrix(3.833693,0,0,3.833693,-338.86788,-466.77882)" /><linearGradient
       inkscape:collect="always"
       xlink:href="#linearGradient11404"
       id="linearGradient11406"
       x1="92.925064"
       y1="136.41673"
       x2="119.1948"
       y2="136.41673"
       gradientUnits="userSpaceOnUse"
       gradientTransform="matrix(3.833693,0,0,3.833693,-338.86788,-466.77882)" /></defs><g
     inkscape:label="Ebene 1"
     inkscape:groupmode="layer"
     id="layer1"><text
       xml:space="preserve"
       style="font-size:35.4266px;font-family:'Old English Text MT';-inkscape-font-specification:'Old English Text MT, Normal';fill:#000000;fill-opacity:0.997658;fill-rule:evenodd;stroke-width:1.25528;stroke-linecap:round;stroke-linejoin:round"
       x="9.4558821"
       y="111.9466"
       id="text356"><tspan
         sodipodi:role="line"
         id="tspan354"
         style="font-style:normal;font-variant:normal;font-weight:normal;font-stretch:normal;font-size:35.4266px;font-family:Arial;-inkscape-font-specification:'Arial, Normal';font-variant-ligatures:normal;font-variant-caps:normal;font-variant-numeric:normal;font-variant-east-asian:normal;fill:#000000;stroke-width:1.25528"
         x="9.4558821"
         y="111.9466">NetSim</tspan></text><path
       id="path568"
       style="fill:url(#linearGradient11406);fill-opacity:1;fill-rule:evenodd;stroke:url(#linearGradient4829);stroke-width:1.53348;stroke-linecap:round;stroke-linejoin:round;stroke-opacity:1"
       d="m 66.99932,27.881996 c -1.227166,-5.74e-4 -2.222431,0.963599 -2.222813,2.153463 3.82e-4,1.189862 0.995609,2.154075 2.222813,2.1535 1.226436,-4.6e-4 2.220474,-0.964366 2.220858,-2.1535 -3.84e-4,-1.189097 -0.99446,-2.153003 -2.220858,-2.153463 z m 2.090091,3.663094 12.190837,9.592551 z m -3.344131,1.002434 -6.040596,12.881707 z m -29.758331,1.178785 c -1.95965,-7.8e-5 -3.548283,1.516684 -3.548179,3.38768 -1.27e-4,1.870996 1.588514,3.387797 3.548179,3.387719 1.959664,7.8e-5 3.5483,-1.516723 3.548174,-3.387719 1.03e-4,-1.870996 -1.588526,-3.387758 -3.548174,-3.38768 z m 78.454181,4.849736 c -1.59076,3.8e-5 -2.88037,1.263049 -2.88056,2.821137 2.3e-4,1.55809 1.2898,2.821061 2.88056,2.821101 1.59071,-7.8e-5 2.88029,-1.263049 2.88052,-2.821101 -1.9e-4,-1.558088 -1.28977,-2.821061 -2.88052,-2.821137 z m -75.056265,0.221203 16.044945,7.207688 z m 44.721389,0.947651 c -1.892694,-6.9e-4 -3.427397,1.427552 -3.427321,3.189594 -7.6e-5,1.762042 1.534627,3.190285 3.427321,3.189595 1.891927,-3.46e-4 3.425444,-1.428281 3.425366,-3.189595 7.8e-5,-1.761313 -1.533439,-3.189249 -3.425366,-3.189594 z m 27.658386,4.176157 -10.84859,8.984375 z m -53.832886,1.291686 c -2.26878,4.22e-4 -4.107994,1.716383 -4.108837,3.833463 -3.07e-4,2.117847 1.839215,3.835035 4.108837,3.835457 2.27039,5.74e-4 4.111137,-1.716881 4.110831,-3.835457 -8.44e-4,-2.117809 -1.841285,-3.834038 -4.110831,-3.833463 z m 29.0832,-0.290211 13.710906,7.983014 z m -3.104486,0.931741 0.08894,18.757684 z m -21.511274,4.566964 17.873598,15.482407 z m -7.83534,1.672065 -8.212115,8.77402 z m 46.257076,0.764707 11.32608,15.912317 z m -80.506589,1.394697 c -1.198045,0 -2.169272,0.961452 -2.169323,2.14752 2.7e-5,1.186068 0.971262,2.147558 2.169323,2.147558 1.198059,0 2.169294,-0.96149 2.169321,-2.147558 -4.9e-5,-1.186068 -0.971277,-2.14752 -2.169321,-2.14752 z m 2.5287,3.191626 12.462403,5.545092 z m 18.912913,1.816634 c -3.431656,-1.92e-4 -6.21348,2.707124 -6.212779,6.046385 4.53e-4,3.338457 2.781935,6.044545 6.212779,6.044354 3.430842,2.3e-4 6.212339,-2.705859 6.212798,-6.044354 6.9e-4,-3.339261 -2.781113,-6.046615 -6.212798,-6.046385 z m 42.207687,5.949279 c -2.935689,5.36e-4 -5.3153,2.300291 -5.315338,5.137032 3.8e-5,2.836741 2.379649,5.136498 5.315338,5.137034 2.936456,5.37e-4 5.317256,-2.299564 5.317294,-5.137034 -3.8e-5,-2.837469 -2.380838,-5.13757 -5.317294,-5.137032 z m 29.366069,3.859224 c -0.89755,1.15e-4 -1.62492,0.645058 -1.6245,1.44028 8.1e-4,0.794456 0.72783,1.438172 1.6245,1.438287 0.89666,-1.15e-4 1.62371,-0.643831 1.62452,-1.438287 4.2e-4,-0.795261 -0.72699,-1.440165 -1.62452,-1.44028 z m -66.03055,0.113855 7.335388,5.69081 z m -9.305584,1.34348 -6.224426,9.521973 z m 40.994737,1.366596 -16.640605,4.984759 z m -20.852491,1.82572 c -2.090781,-6.9e-4 -3.786079,1.61383 -3.785925,3.605626 -1.54e-4,1.991795 1.695144,3.606317 3.785925,3.605627 2.090014,-3.46e-4 3.784084,-1.61456 3.783932,-3.605627 1.52e-4,-1.991067 -1.693918,-3.605282 -3.783932,-3.605626 z m 30.21203,0.594337 7.163294,6.945578 z m -57.989256,5.543143 c -1.148252,3.06e-4 -2.078773,0.963674 -2.078191,2.151507 4.83e-4,1.187063 0.930691,2.149206 2.078191,2.149512 1.147502,-3.06e-4 2.077708,-0.962449 2.078192,-2.149512 5.83e-4,-1.187833 -0.929939,-2.151201 -2.078192,-2.151507 z m 67.403502,0.223888 c -1.202897,6.12e-4 -2.177576,0.994842 -2.17723,2.220819 6.9e-4,1.225209 0.975099,2.218251 2.17723,2.218865 1.202896,4.98e-4 2.178536,-0.99285 2.179226,-2.218865 3.5e-4,-1.226781 -0.97556,-2.221319 -2.179226,-2.220819 z" /></g></svg>
