<?xml version="1.0" encoding="UTF-8" standalone="no"?>
<!-- Created with Inkscape (http://www.inkscape.org/) -->

<svg
   width="128"
   height="128"
   viewBox="0 0 33.866667 33.866667"
   version="1.1"
   id="svg5"
   xml:space="preserve"
   sodipodi:docname="full_logo.svg"
   inkscape:version="1.2.1 (9c6d41e410, 2022-07-14)"
   xmlns:inkscape="http://www.inkscape.org/namespaces/inkscape"
   xmlns:sodipodi="http://sodipodi.sourceforge.net/DTD/sodipodi-0.dtd"
   xmlns:xlink="http://www.w3.org/1999/xlink"
   xmlns="http://www.w3.org/2000/svg"
   xmlns:svg="http://www.w3.org/2000/svg"><sodipodi:namedview
     id="namedview7"
     pagecolor="#505050"
     bordercolor="#eeeeee"
     borderopacity="1"
     inkscape:showpageshadow="0"
     inkscape:pageopacity="0"
     inkscape:pagecheckerboard="0"
     inkscape:deskcolor="#505050"
     inkscape:document-units="mm"
     showgrid="false"
     inkscape:zoom="4.921833"
     inkscape:cx="64.508488"
     inkscape:cy="49.473438"
     inkscape:window-width="1920"
     inkscape:window-height="991"
     inkscape:window-x="-9"
     inkscape:window-y="-9"
     inkscape:window-maximized="1"
     inkscape:current-layer="layer1" /><defs
     id="defs2"><linearGradient
       inkscape:collect="always"
       id="linearGradient11404"><stop
         style="stop-color:#ffaa00;stop-opacity:1;"
         offset="0"
         id="stop11400" /><stop
         style="stop-color:#ff2a00;stop-opacity:1;"
         offset="1"
         id="stop11402" /></linearGradient><linearGradient
       inkscape:collect="always"
       id="linearGradient4827"><stop
         style="stop-color:#ffaa00;stop-opacity:1;"
         offset="0"
         id="stop4823" /><stop
         style="stop-color:#ff2a00;stop-opacity:1;"
         offset="1"
         id="stop4825" /></linearGradient><linearGradient
       inkscape:collect="always"
       xlink:href="#linearGradient4827"
       id="linearGradient4829"
       x1="92.925064"
       y1="136.41673"
       x2="119.1948"
       y2="136.41673"
       gradientUnits="userSpaceOnUse"
       gradientTransform="matrix(1.1680172,0,0,1.1680172,-106.94649,-146.50672)" /><linearGradient
       inkscape:collect="always"
       xlink:href="#linearGradient11404"
       id="linearGradient11406"
       x1="92.925064"
       y1="136.41673"
       x2="119.1948"
       y2="136.41673"
       gradientUnits="userSpaceOnUse"
       gradientTransform="matrix(1.1680172,0,0,1.1680172,-106.94649,-146.50672)" /></defs><g
     inkscape:label="Ebene 1"
     inkscape:groupmode="layer"
     id="layer1"><text
       xml:space="preserve"
       style="font-size:10.7935px;font-family:'Old English Text MT';-inkscape-font-specification:'Old English Text MT, Normal';fill:#a9b7c6;fill-opacity:0.996078;fill-rule:evenodd;stroke-width:0.382447;stroke-linecap:round;stroke-linejoin:round"
       x="-0.82218486"
       y="29.814428"
       id="text356"><tspan
         sodipodi:role="line"
         id="tspan354"
         style="font-style:normal;font-variant:normal;font-weight:normal;font-stretch:normal;font-size:10.7935px;font-family:Arial;-inkscape-font-specification:'Arial, Normal';font-variant-ligatures:normal;font-variant-caps:normal;font-variant-numeric:normal;font-variant-east-asian:normal;fill:#a9b7c6;fill-opacity:0.996078;stroke-width:0.382447"
         x="-0.82218486"
         y="29.814428">NetSim</tspan></text><path
       id="path568"
       style="fill:url(#linearGradient11406);fill-opacity:1;fill-rule:evenodd;stroke:url(#linearGradient4829);stroke-width:0.467209;stroke-linecap:round;stroke-linejoin:round;stroke-opacity:1"
       d="m 16.7097,4.2023546 c -0.373883,-1.75e-4 -0.677112,0.293581 -0.677228,0.656099 1.16e-4,0.362517 0.303334,0.656286 0.677228,0.65611 0.37366,-1.4e-4 0.676515,-0.293815 0.676632,-0.65611 -1.17e-4,-0.362284 -0.302984,-0.655959 -0.676632,-0.656099 z m 0.636791,1.116041 3.714201,2.9225782 z m -1.018862,0.305413 -1.840397,3.9246923 z m -9.0665162,0.359142 c -0.59705,-2.4e-5 -1.081061,0.46209 -1.081029,1.0321306 -3.9e-5,0.5700393 0.483975,1.0321656 1.081029,1.0321416 0.597054,2.4e-5 1.081066,-0.4621023 1.081027,-1.0321416 3.2e-5,-0.5700406 -0.483978,-1.0321546 -1.081027,-1.0321306 z M 31.163868,7.4605285 c -0.484658,1.1e-5 -0.877566,0.3848153 -0.877625,0.8595206 7.2e-5,0.4747063 0.392967,0.8594972 0.877625,0.8595092 0.484645,-2.4e-5 0.877543,-0.3848149 0.877615,-0.8595092 -5.8e-5,-0.4747053 -0.392956,-0.8594976 -0.877615,-0.8595206 z m -22.8675072,0.06739 4.8884382,2.1959794 z m 13.6253352,0.288722 c -0.57665,-2.1e-4 -1.04423,0.4349353 -1.044207,0.9717799 -2.3e-5,0.5368455 0.467557,0.9719905 1.044207,0.9717805 0.576416,-1.06e-4 1.043635,-0.435157 1.043611,-0.9717805 2.4e-5,-0.5366226 -0.467195,-0.9716749 -1.043611,-0.9717799 z m 8.426722,1.2723569 -3.305255,2.7372856 z M 13.94707,9.4825389 c -0.691232,1.29e-4 -1.251588,0.5229331 -1.251845,1.1679471 -9.4e-5,0.645248 0.560356,1.168426 1.251845,1.168555 0.691724,1.75e-4 1.252547,-0.523085 1.252454,-1.168555 C 15.199267,10.00525 14.638537,9.4823639 13.94707,9.4825389 Z m 8.860824,-0.08842 4.177323,2.4321981 z m -0.945849,0.283875 0.0271,5.7149331 z m -6.553873,1.3914241 5.445577,4.717049 z m -2.387205,0.509431 -2.501998,2.673194 z m 14.093216,0.232984 3.450733,4.848031 z M 2.4861148,12.236758 c -0.36501,0 -0.660915,0.292927 -0.660931,0.654288 8e-6,0.361361 0.295916,0.6543 0.660931,0.6543 0.365015,0 0.660922,-0.292939 0.66093,-0.6543 -1.4e-5,-0.361361 -0.29592,-0.654288 -0.66093,-0.654288 z m 0.770423,0.972397 3.79694,1.689432 z m 5.762226,0.553477 c -1.045527,-5.8e-5 -1.89307,0.824784 -1.892857,1.842162 1.39e-4,1.017132 0.847577,1.841601 1.892857,1.841542 1.0452802,7e-5 1.8927232,-0.824398 1.8928632,-1.841542 2.1e-4,-1.017378 -0.847326,-1.842232 -1.8928632,-1.842162 z m 12.8594822,1.812576 c -0.894421,1.63e-4 -1.619421,0.700833 -1.619432,1.565108 1.1e-5,0.864274 0.725011,1.564945 1.619432,1.565108 0.894654,1.63e-4 1.620016,-0.700612 1.620027,-1.565108 -1.1e-5,-0.864496 -0.725373,-1.565272 -1.620027,-1.565108 z m 8.947006,1.175796 c -0.27346,3.5e-5 -0.495067,0.196531 -0.49494,0.438812 2.46e-4,0.242048 0.22175,0.43817 0.49494,0.438205 0.273185,-3.5e-5 0.494697,-0.196157 0.494945,-0.438205 1.27e-4,-0.242293 -0.221493,-0.438777 -0.494945,-0.438812 z m -20.11763,0.03469 2.234884,1.733828 z m -2.8351472,0.409321 -1.896406,2.901074 z m 12.4899302,0.416362 -5.069919,1.518715 z m -6.353161,0.556245 c -0.637001,-2.1e-4 -1.15351,0.491688 -1.153463,1.098532 -4.7e-5,0.606843 0.516462,1.098742 1.153463,1.098532 0.636768,-1.06e-4 1.152903,-0.491911 1.152857,-1.098532 4.6e-5,-0.606621 -0.516089,-1.098427 -1.152857,-1.098532 z m 9.204746,0.181078 2.182452,2.11612 z M 5.5463138,20.037538 c -0.34984,9.3e-5 -0.633343,0.293604 -0.633166,0.655503 1.47e-4,0.361664 0.283555,0.654802 0.633166,0.654895 0.349611,-9.3e-5 0.633018,-0.293231 0.633166,-0.654895 1.77e-4,-0.361899 -0.283326,-0.65541 -0.633166,-0.655503 z m 20.5359282,0.06821 c -0.366487,1.87e-4 -0.663445,0.3031 -0.663339,0.67662 2.09e-4,0.373287 0.297084,0.675838 0.663339,0.676026 0.36649,1.51e-4 0.663739,-0.302494 0.66395,-0.676026 1.06e-4,-0.373765 -0.297227,-0.676772 -0.66395,-0.67662 z" /></g></svg>
