<?xml version="1.0" ?><!DOCTYPE svg  PUBLIC '-//W3C//DTD SVG 1.1//EN'  'http://www.w3.org/Graphics/SVG/1.1/DTD/svg11.dtd'><svg enable-background="new 0 0 500 500" height="500px" id="Layer_1" version="1.1" viewBox="0 0 500 500" width="500px" xml:space="preserve" xmlns="http://www.w3.org/2000/svg" xmlns:xlink="http://www.w3.org/1999/xlink"><g><polyline fill="none" points="   25,386.911 416.464,386.911 416.464,417.032  " stroke="#130B7A" stroke-linecap="round" stroke-linejoin="round" stroke-miterlimit="2.6131" stroke-width="10"/><path d="   M416.464,417.032c0,7.129-5.825,12.936-12.917,12.936" fill="none" stroke="#130B7A" stroke-linecap="round" stroke-linejoin="round" stroke-miterlimit="2.6131" stroke-width="10"/><line fill="none" stroke="#130B7A" stroke-linecap="round" stroke-linejoin="round" stroke-miterlimit="2.6131" stroke-width="10" x1="403.547" x2="35.337" y1="429.968" y2="429.968"/><path d="   M35.337,429.968c-5.685,0-10.337-4.662-10.337-10.347" fill="none" stroke="#130B7A" stroke-linecap="round" stroke-linejoin="round" stroke-miterlimit="2.6131" stroke-width="10"/><line fill="none" stroke="#130B7A" stroke-linecap="round" stroke-linejoin="round" stroke-miterlimit="2.6131" stroke-width="10" x1="25" x2="25" y1="419.621" y2="386.911"/><line fill="none" stroke="#130B7A" stroke-linecap="round" stroke-linejoin="round" stroke-miterlimit="2.6131" stroke-width="10" x1="146.629" x2="59.633" y1="181.766" y2="181.766"/><path d="   M59.633,181.766c-6.369,0-11.575,5.206-11.575,11.557" fill="none" stroke="#130B7A" stroke-linecap="round" stroke-linejoin="round" stroke-miterlimit="2.6131" stroke-width="10"/><polyline fill="none" points="   48.058,193.322 48.058,386.911 393.406,386.911 393.406,315.674  " stroke="#130B7A" stroke-linecap="round" stroke-linejoin="round" stroke-miterlimit="2.6131" stroke-width="10"/><line fill="none" stroke="#130B7A" stroke-linecap="round" stroke-linejoin="round" stroke-miterlimit="2.6131" stroke-width="10" x1="282.104" x2="203.673" y1="181.766" y2="181.766"/><line fill="none" stroke="#130B7A" stroke-linecap="round" stroke-linejoin="round" stroke-miterlimit="2.6131" stroke-width="10" x1="384.063" x2="314.355" y1="181.766" y2="181.766"/><line fill="none" stroke="#130B7A" stroke-linecap="round" stroke-linejoin="round" stroke-miterlimit="2.6131" stroke-width="10" x1="393.406" x2="393.406" y1="279.192" y2="215.357"/><line fill="none" stroke="#130B7A" stroke-linecap="round" stroke-linejoin="round" stroke-miterlimit="2.6131" stroke-width="10" x1="44.005" x2="170.869" y1="408.439" y2="408.439"/><path d="   M353.163,411.169c1.511,0,2.73-1.238,2.73-2.729c0-1.52-1.22-2.729-2.73-2.729c-1.51,0-2.748,1.21-2.748,2.729   C350.415,409.931,351.653,411.169,353.163,411.169" fill="none" stroke="#130B7A" stroke-linecap="round" stroke-linejoin="round" stroke-miterlimit="2.6131" stroke-width="10"/><path d="   M373.66,411.169c1.52,0,2.749-1.238,2.749-2.729c0-1.52-1.229-2.729-2.749-2.729c-1.501,0-2.721,1.21-2.721,2.729   C370.939,409.931,372.159,411.169,373.66,411.169" fill="none" stroke="#130B7A" stroke-linecap="round" stroke-linejoin="round" stroke-miterlimit="2.6131" stroke-width="10"/><path d="   M392.469,411.169c1.51,0,2.748-1.238,2.748-2.729c0-1.52-1.238-2.729-2.748-2.729c-1.492,0-2.73,1.21-2.73,2.729   C389.738,409.931,390.977,411.169,392.469,411.169" fill="none" stroke="#130B7A" stroke-linecap="round" stroke-linejoin="round" stroke-miterlimit="2.6131" stroke-width="10"/><path d="   M328.492,281.819c0,25.188-20.422,45.618-45.6,45.618s-45.59-20.431-45.59-45.618c0-25.168,20.412-45.6,45.59-45.6   S328.492,256.651,328.492,281.819" fill="none" stroke="#130B7A" stroke-linecap="round" stroke-linejoin="round" stroke-miterlimit="2.6131" stroke-width="10"/><path d="   M314.6,101.729c0,17.514-14.202,31.688-31.707,31.688c-17.514,0-31.688-14.174-31.688-31.688c0-17.514,14.174-31.697,31.688-31.697   C300.397,70.032,314.6,84.215,314.6,101.729" fill="none" stroke="#130B7A" stroke-linecap="round" stroke-linejoin="round" stroke-miterlimit="2.6131" stroke-width="10"/><path d="   M475,281.819c0,17.514-14.193,31.707-31.707,31.707s-31.697-14.193-31.697-31.707c0-17.495,14.184-31.688,31.697-31.688   S475,264.324,475,281.819" fill="none" stroke="#130B7A" stroke-linecap="round" stroke-linejoin="round" stroke-miterlimit="2.6131" stroke-width="10"/><path d="   M445.46,144.083c0,11.735-9.512,21.266-21.266,21.266c-11.764,0-21.304-9.53-21.304-21.266c0-11.764,9.54-21.285,21.304-21.285   C435.948,122.798,445.46,132.319,445.46,144.083" fill="none" stroke="#130B7A" stroke-linecap="round" stroke-linejoin="round" stroke-miterlimit="2.6131" stroke-width="10"/><path d="   M120.738,139.187c0,11.763-9.54,21.284-21.284,21.284c-11.764,0-21.266-9.521-21.266-21.284c0-11.745,9.502-21.285,21.266-21.285   C111.198,117.901,120.738,127.441,120.738,139.187" fill="none" stroke="#130B7A" stroke-linecap="round" stroke-linejoin="round" stroke-miterlimit="2.6131" stroke-width="10"/><line fill="none" stroke="#130B7A" stroke-linecap="round" stroke-linejoin="round" stroke-miterlimit="2.6131" stroke-width="10" x1="320.162" x2="410.17" y1="254.053" y2="160.471"/><line fill="none" stroke="#130B7A" stroke-linecap="round" stroke-linejoin="round" stroke-miterlimit="2.6131" stroke-width="10" x1="282.893" x2="282.893" y1="234.841" y2="134.205"/><polyline fill="none" points="   328.492,281.819 392.149,281.819 411.596,281.819  " stroke="#130B7A" stroke-linecap="round" stroke-linejoin="round" stroke-miterlimit="2.6131" stroke-width="10"/><line fill="none" stroke="#130B7A" stroke-linecap="round" stroke-linejoin="round" stroke-miterlimit="2.6131" stroke-width="10" x1="115.514" x2="244.686" y1="153.633" y2="254.794"/></g></svg>