<?xml version="1.0" encoding="UTF-8" standalone="no"?>
<!-- Created with Inkscape (http://www.inkscape.org/) -->

<svg
   width="128"
   height="128"
   viewBox="0 0 33.866667 33.866667"
   version="1.1"
   id="svg5"
   xml:space="preserve"
   inkscape:version="1.2.1 (9c6d41e410, 2022-07-14)"
   sodipodi:docname="icon.svg"
   xmlns:inkscape="http://www.inkscape.org/namespaces/inkscape"
   xmlns:sodipodi="http://sodipodi.sourceforge.net/DTD/sodipodi-0.dtd"
   xmlns:xlink="http://www.w3.org/1999/xlink"
   xmlns="http://www.w3.org/2000/svg"
   xmlns:svg="http://www.w3.org/2000/svg"><sodipodi:namedview
     id="namedview7"
     pagecolor="#505050"
     bordercolor="#eeeeee"
     borderopacity="1"
     inkscape:showpageshadow="0"
     inkscape:pageopacity="0"
     inkscape:pagecheckerboard="0"
     inkscape:deskcolor="#505050"
     inkscape:document-units="mm"
     showgrid="false"
     inkscape:zoom="0.93806815"
     inkscape:cx="251.04786"
     inkscape:cy="243.58571"
     inkscape:window-width="1920"
     inkscape:window-height="991"
     inkscape:window-x="-9"
     inkscape:window-y="-9"
     inkscape:window-maximized="1"
     inkscape:current-layer="layer1" /><defs
     id="defs2"><linearGradient
       inkscape:collect="always"
       id="linearGradient11404"><stop
         style="stop-color:#ffaa00;stop-opacity:1;"
         offset="0"
         id="stop11400" /><stop
         style="stop-color:#ff2a00;stop-opacity:1;"
         offset="1"
         id="stop11402" /></linearGradient><linearGradient
       inkscape:collect="always"
       id="linearGradient4827"><stop
         style="stop-color:#ffaa00;stop-opacity:1;"
         offset="0"
         id="stop4823" /><stop
         style="stop-color:#ff2a00;stop-opacity:1;"
         offset="1"
         id="stop4825" /></linearGradient><linearGradient
       inkscape:collect="always"
       xlink:href="#linearGradient4827"
       id="linearGradient4829"
       x1="92.925064"
       y1="136.41673"
       x2="119.1948"
       y2="136.41673"
       gradientUnits="userSpaceOnUse"
       gradientTransform="matrix(1.2891892,0,0,1.2891892,-119.79799,-158.93366)" /><linearGradient
       inkscape:collect="always"
       xlink:href="#linearGradient11404"
       id="linearGradient11406"
       x1="92.925064"
       y1="136.41673"
       x2="119.1948"
       y2="136.41673"
       gradientUnits="userSpaceOnUse"
       gradientTransform="matrix(1.2891892,0,0,1.2891892,-119.79799,-158.93366)" /></defs><g
     inkscape:label="Ebene 1"
     inkscape:groupmode="layer"
     id="layer1"><text
       xml:space="preserve"
       style="font-size:35.4266px;font-family:'Old English Text MT';-inkscape-font-specification:'Old English Text MT, Normal';display:none;fill:#000000;fill-opacity:0.997658;fill-rule:evenodd;stroke-width:1.25528;stroke-linecap:round;stroke-linejoin:round"
       x="9.4558821"
       y="111.9466"
       id="text356"><tspan
         sodipodi:role="line"
         id="tspan354"
         style="font-style:normal;font-variant:normal;font-weight:normal;font-stretch:normal;font-size:35.4266px;font-family:Arial;-inkscape-font-specification:'Arial, Normal';font-variant-ligatures:normal;font-variant-caps:normal;font-variant-numeric:normal;font-variant-east-asian:normal;fill:#000000;stroke-width:1.25528"
         x="0"
         y="0">NetSim</tspan></text><path
       id="path568"
       style="fill:url(#linearGradient11406);fill-opacity:1;fill-rule:evenodd;stroke:url(#linearGradient4829);stroke-width:0.515678;stroke-linecap:round;stroke-linejoin:round;stroke-opacity:1"
       d="m 16.6865,7.4102253 c -0.41267,-1.93e-4 -0.747355,0.324037 -0.747484,0.724164 1.29e-4,0.400125 0.334802,0.724369 0.747484,0.724176 0.412424,-1.55e-4 0.746699,-0.324296 0.746827,-0.724176 -1.28e-4,-0.399868 -0.334415,-0.72401 -0.746827,-0.724164 z m 0.702853,1.23182 4.09952,3.2257697 z m -1.12456,0.337097 -2.031324,4.3318437 z M 6.2577004,9.3755433 c -0.6589888,-2.7e-5 -1.1932124,0.510027 -1.1931773,1.1392037 -4.28e-5,0.629176 0.5341832,1.139244 1.1931773,1.139218 0.6589928,2.6e-5 1.1932169,-0.510042 1.1931753,-1.139218 C 7.4509097,9.8855703 6.9166881,9.3755163 6.2577004,9.3755433 Z M 32.640171,11.006406 c -0.534941,1.2e-5 -0.968607,0.424735 -0.968672,0.948687 7.7e-5,0.523953 0.433731,0.948664 0.968672,0.948677 0.534918,-2.7e-5 0.96858,-0.424736 0.968657,-0.948677 -6.4e-5,-0.523952 -0.433725,-0.948662 -0.968657,-0.948687 z m -25.2398249,0.07439 5.3955749,2.423792 z m 15.0388509,0.318675 c -0.636472,-2.32e-4 -1.15256,0.480056 -1.152535,1.072593 -2.5e-5,0.592537 0.516063,1.072824 1.152535,1.072592 0.636215,-1.16e-4 1.151904,-0.4803 1.151878,-1.072592 2.6e-5,-0.592293 -0.515663,-1.072477 -1.151878,-1.072593 z m 9.300927,1.404353 -3.648153,3.021254 z m -18.102854,0.43436 c -0.762942,1.43e-4 -1.38143,0.577184 -1.381714,1.289112 -1.03e-4,0.712187 0.618489,1.289641 1.381714,1.289782 0.763484,1.94e-4 1.382488,-0.57735 1.382386,-1.289782 -2.64e-4,-0.712174 -0.619185,-1.289305 -1.382386,-1.289112 z m 9.780061,-0.09759 4.610687,2.684518 z m -1.043972,0.313325 0.02991,6.30781 z m -7.233783,1.535773 6.010509,5.206403 z m -2.634858,0.56228 -2.7615595,2.950515 z m 15.555266,0.257154 3.808721,5.350973 z M 0.98733607,16.278133 c -0.40287705,0 -0.72948009,0.323316 -0.72949709,0.722165 8.9e-6,0.398849 0.32661461,0.722178 0.72949709,0.722178 0.40288163,0 0.72948703,-0.323329 0.72949633,-0.722178 -1.66e-5,-0.398849 -0.3266198,-0.722165 -0.72949633,-0.722165 z m 0.85034773,1.073276 4.1908412,1.864696 z m 6.3600096,0.610895 c -1.1539922,-6.4e-5 -2.0894609,0.910349 -2.0892251,2.03327 1.525e-4,1.122652 0.9355052,2.032653 2.0892251,2.032588 1.1537187,7.7e-5 2.0890776,-0.909923 2.0892316,-2.032588 2.33e-4,-1.122921 -0.935228,-2.033347 -2.0892316,-2.03327 z M 22.391239,19.96292 c -0.987208,1.8e-4 -1.787422,0.773538 -1.787434,1.727474 1.2e-5,0.953937 0.800226,1.727295 1.787434,1.727475 0.987468,1.81e-4 1.788081,-0.773294 1.788093,-1.727475 -1.2e-5,-0.95418 -0.800625,-1.727655 -1.788093,-1.727474 z m 9.875183,1.297775 c -0.301826,3.8e-5 -0.546424,0.216919 -0.546284,0.484335 2.64e-4,0.267158 0.244752,0.483627 0.546284,0.483666 0.301529,-3.9e-5 0.54602,-0.216508 0.546293,-0.483666 1.4e-4,-0.267429 -0.244472,-0.484297 -0.546293,-0.484335 z m -22.204666,0.03829 2.466735,1.913699 z m -3.1292703,0.451784 -2.0931415,3.202036 z m 13.7856583,0.459556 -5.595881,1.676269 z m -7.012249,0.613952 c -0.703086,-2.32e-4 -1.273178,0.542696 -1.273126,1.212495 -5.2e-5,0.669798 0.57004,1.212727 1.273126,1.212495 0.702827,-1.16e-4 1.272507,-0.542942 1.272455,-1.212495 5.2e-5,-0.669553 -0.569628,-1.21238 -1.272455,-1.212495 z m 10.159661,0.199863 2.408861,2.335649 z M 4.3650048,24.88818 c -0.3861325,1.04e-4 -0.699047,0.324063 -0.6988512,0.723507 1.624e-4,0.399183 0.3129714,0.722734 0.6988512,0.722833 0.3858806,-9.9e-5 0.698689,-0.32365 0.6988517,-0.722833 1.96e-4,-0.399444 -0.3127187,-0.723403 -0.6988517,-0.723507 z m 22.6663582,0.07529 c -0.404506,2.06e-4 -0.732268,0.334544 -0.732154,0.746815 2.32e-4,0.412012 0.327905,0.745949 0.732154,0.746156 0.404512,1.67e-4 0.732598,-0.333872 0.732831,-0.746156 1.16e-4,-0.412542 -0.32806,-0.746984 -0.732831,-0.746815 z" /></g></svg>
