<?xml version="1.0" encoding="UTF-8" standalone="no"?>
<!-- Created with Inkscape (http://www.inkscape.org/) -->

<svg
   width="512"
   height="512"
   viewBox="0 0 135.46667 135.46667"
   version="1.1"
   id="svg5"
   xml:space="preserve"
   inkscape:version="1.2.2 (732a01da63, 2022-12-09)"
   sodipodi:docname="icon.svg"
   xmlns:inkscape="http://www.inkscape.org/namespaces/inkscape"
   xmlns:sodipodi="http://sodipodi.sourceforge.net/DTD/sodipodi-0.dtd"
   xmlns:xlink="http://www.w3.org/1999/xlink"
   xmlns="http://www.w3.org/2000/svg"
   xmlns:svg="http://www.w3.org/2000/svg"><sodipodi:namedview
     id="namedview7"
     pagecolor="#505050"
     bordercolor="#eeeeee"
     borderopacity="1"
     inkscape:showpageshadow="0"
     inkscape:pageopacity="0"
     inkscape:pagecheckerboard="0"
     inkscape:deskcolor="#505050"
     inkscape:document-units="mm"
     showgrid="false"
     inkscape:zoom="1.3266287"
     inkscape:cx="94.223799"
     inkscape:cy="238.95155"
     inkscape:window-width="3440"
     inkscape:window-height="1369"
     inkscape:window-x="-8"
     inkscape:window-y="-8"
     inkscape:window-maximized="1"
     inkscape:current-layer="layer1" /><defs
     id="defs2"><linearGradient
       inkscape:collect="always"
       id="linearGradient11404"><stop
         style="stop-color:#ffaa00;stop-opacity:1;"
         offset="0"
         id="stop11400" /><stop
         style="stop-color:#ff2a00;stop-opacity:1;"
         offset="1"
         id="stop11402" /></linearGradient><linearGradient
       inkscape:collect="always"
       id="linearGradient4827"><stop
         style="stop-color:#ffaa00;stop-opacity:1;"
         offset="0"
         id="stop4823" /><stop
         style="stop-color:#ff2a00;stop-opacity:1;"
         offset="1"
         id="stop4825" /></linearGradient><linearGradient
       inkscape:collect="always"
       xlink:href="#linearGradient4827"
       id="linearGradient4829"
       x1="92.925064"
       y1="136.41673"
       x2="119.1948"
       y2="136.41673"
       gradientUnits="userSpaceOnUse"
       gradientTransform="matrix(4.8662077,0,0,4.8662077,-448.37632,-596.09887)" /><linearGradient
       inkscape:collect="always"
       xlink:href="#linearGradient11404"
       id="linearGradient11406"
       x1="92.925064"
       y1="136.41673"
       x2="119.1948"
       y2="136.41673"
       gradientUnits="userSpaceOnUse"
       gradientTransform="matrix(4.8662077,0,0,4.8662077,-448.37632,-596.09887)" /></defs><g
     inkscape:label="Ebene 1"
     inkscape:groupmode="layer"
     id="layer1"><text
       xml:space="preserve"
       style="font-size:35.4266px;font-family:'Old English Text MT';-inkscape-font-specification:'Old English Text MT, Normal';display:none;fill:#000000;fill-opacity:0.997658;fill-rule:evenodd;stroke-width:1.25528;stroke-linecap:round;stroke-linejoin:round"
       x="9.4558821"
       y="111.9466"
       id="text356"><tspan
         sodipodi:role="line"
         id="tspan354"
         style="font-style:normal;font-variant:normal;font-weight:normal;font-stretch:normal;font-size:35.4266px;font-family:Arial;-inkscape-font-specification:'Arial, Normal';font-variant-ligatures:normal;font-variant-caps:normal;font-variant-numeric:normal;font-variant-east-asian:normal;fill:#000000;stroke-width:1.25528"
         x="9.4558821"
         y="111.9466">NetSim</tspan></text><path
       id="path568"
       style="fill:url(#linearGradient11406);fill-opacity:1;fill-rule:evenodd;stroke:url(#linearGradient4829);stroke-width:1.94649;stroke-linecap:round;stroke-linejoin:round;stroke-opacity:1"
       d="m 66.801627,31.787169 c -1.557674,-7.28e-4 -2.82099,1.223123 -2.821475,2.733448 4.85e-4,1.510323 1.263752,2.734224 2.821475,2.733495 1.556747,-5.84e-4 2.818507,-1.224096 2.818994,-2.733495 -4.87e-4,-1.509352 -1.262295,-2.732864 -2.818994,-2.733448 z m 2.653008,4.649663 15.474151,12.176078 z m -4.244794,1.272416 -7.667488,16.35109 z m -37.773034,1.496263 c -2.487436,-9.9e-5 -4.50393,1.925166 -4.503798,4.300071 -1.61e-4,2.374905 2.016342,4.300221 4.503798,4.300121 2.487453,10e-5 4.50395,-1.925216 4.50379,-4.300121 1.3e-4,-2.374905 -2.016358,-4.30017 -4.50379,-4.300071 z m 99.583963,6.155897 c -2.0192,4.9e-5 -3.65613,1.603222 -3.65637,3.580944 2.9e-4,1.977725 1.63717,3.580847 3.65637,3.580898 2.01912,-9.9e-5 3.65603,-1.603222 3.65632,-3.580898 -2.4e-4,-1.977722 -1.63715,-3.580847 -3.65632,-3.580944 z m -95.2709,0.280779 20.366273,9.148908 z m 56.766039,1.202878 c -2.402446,-8.75e-4 -4.350485,1.81203 -4.350388,4.048636 -9.7e-5,2.236606 1.947942,4.049514 4.350388,4.048637 2.401474,-4.39e-4 4.348007,-1.812955 4.347908,-4.048637 9.9e-5,-2.235681 -1.946434,-4.048198 -4.347908,-4.048636 z m 35.107521,5.300907 -13.77041,11.404104 z m -68.331504,1.639571 c -2.879823,5.36e-4 -5.214385,2.178651 -5.215455,4.865916 -3.89e-4,2.688239 2.334564,4.867911 5.215455,4.868446 2.881866,7.29e-4 5.218375,-2.179282 5.217987,-4.868446 -10e-4,-2.688191 -2.337192,-4.866646 -5.217987,-4.865916 z M 92.208,53.41717 109.61162,63.55022 Z m -3.940607,1.182684 0.112895,23.809624 z m -27.304827,5.796968 22.687429,19.652227 z m -9.945604,2.122396 -10.423854,11.137095 z m 58.715318,0.970663 14.3765,20.197923 z M 7.5431516,65.260206 c -1.5207102,0 -2.7535143,1.220397 -2.753579,2.725904 3.42e-5,1.505507 1.2328484,2.725952 2.753579,2.725952 1.5207275,0 2.7535414,-1.220445 2.7535764,-2.725952 -6.3e-5,-1.505507 -1.2328676,-2.725904 -2.7535764,-2.725904 z m 3.2097454,4.051216 15.818857,7.038531 z m 24.006659,2.305901 c -4.355891,-2.44e-4 -7.886934,3.436224 -7.886044,7.674836 5.75e-4,4.237591 3.531183,7.672501 7.886044,7.672258 4.354858,2.92e-4 7.885486,-3.434619 7.886069,-7.672258 8.76e-4,-4.238612 -3.53014,-7.675128 -7.886069,-7.674836 z M 88.334887,79.1689 c -3.726347,6.8e-4 -6.74685,2.91982 -6.746899,6.52057 4.9e-5,3.600751 3.020552,6.519892 6.746899,6.520573 3.727321,6.81e-4 6.749333,-2.918897 6.749382,-6.520573 -4.9e-5,-3.601674 -3.022061,-6.521253 -6.749382,-6.52057 z m 37.275123,4.898614 c -1.13928,1.47e-4 -2.06255,0.81879 -2.06202,1.828186 0.001,1.008424 0.92385,1.825509 2.06202,1.825656 1.13816,-1.47e-4 2.06102,-0.817232 2.06205,-1.825656 5.3e-4,-1.009446 -0.92279,-1.828039 -2.06205,-1.828186 z m -83.814316,0.14452 9.311002,7.223495 z M 29.983871,85.917349 22.083043,98.00384 Z m 52.035702,1.734656 -21.12236,6.327286 z M 55.550956,89.96944 c -2.653884,-8.76e-4 -4.805771,2.048476 -4.805575,4.576716 -1.96e-4,2.528238 2.151691,4.577593 4.805575,4.576717 2.652909,-4.39e-4 4.803237,-2.049403 4.803043,-4.576717 1.94e-4,-2.527314 -2.150134,-4.57628 -4.803043,-4.576716 z m 38.348926,0.754407 9.092548,8.816206 z m -73.607293,7.036057 c -1.457506,3.89e-4 -2.638641,1.223217 -2.637902,2.730966 6.13e-4,1.50677 1.18135,2.72805 2.637902,2.72843 1.456555,-3.8e-4 2.63729,-1.22166 2.637904,-2.72843 7.4e-4,-1.507749 -1.180396,-2.730577 -2.637904,-2.730966 z m 85.557031,0.284188 c -1.52686,7.77e-4 -2.76404,1.262779 -2.76361,2.818948 8.8e-4,1.55519 1.23772,2.81568 2.76361,2.81646 1.52688,6.3e-4 2.76528,-1.26024 2.76616,-2.81646 4.4e-4,-1.55719 -1.2383,-2.819583 -2.76616,-2.818948 z" /></g></svg>
