<?xml version="1.0" encoding="UTF-8" standalone="no"?>
<!-- Uploaded to: SVG Repo, www.svgrepo.com, Generator: SVG Repo Mixer Tools -->

<svg
   fill="#000000"
   width="800px"
   height="800px"
   viewBox="0 0 32 32"
   version="1.1"
   id="svg7404"
   sodipodi:docname="network.svg"
   inkscape:version="1.2.2 (732a01da63, 2022-12-09)"
   xmlns:inkscape="http://www.inkscape.org/namespaces/inkscape"
   xmlns:sodipodi="http://sodipodi.sourceforge.net/DTD/sodipodi-0.dtd"
   xmlns="http://www.w3.org/2000/svg"
   xmlns:svg="http://www.w3.org/2000/svg">
  <defs
     id="defs7408" />
  <sodipodi:namedview
     id="namedview7406"
     pagecolor="#505050"
     bordercolor="#eeeeee"
     borderopacity="1"
     inkscape:showpageshadow="0"
     inkscape:pageopacity="0"
     inkscape:pagecheckerboard="0"
     inkscape:deskcolor="#505050"
     showgrid="false"
     inkscape:zoom="1.31625"
     inkscape:cx="337.32194"
     inkscape:cy="399.62013"
     inkscape:window-width="3440"
     inkscape:window-height="1369"
     inkscape:window-x="-8"
     inkscape:window-y="-8"
     inkscape:window-maximized="1"
     inkscape:current-layer="svg7404" />
  <title
     id="title7400">network</title>
  <path
     style="fill:#a9b7c6;fill-rule:evenodd;stroke:#ff6647;stroke-width:1.14857;stroke-linecap:round;stroke-linejoin:round"
     d="m 665.52707,755.45794 c -13.43622,-1.45949 -26.53227,-5.35752 -38.62702,-11.49729 -24.23321,-12.30175 -43.32424,-34.25504 -52.02078,-59.8201 -4.2342,-12.44719 -5.08008,-18.2199 -5.06531,-34.5679 0.0123,-13.6348 0.18043,-15.47718 2.11043,-23.13059 1.15338,-4.57368 3.31595,-11.36234 4.80573,-15.08592 1.48978,-3.72358 2.42042,-7.02236 2.0681,-7.33064 -0.35232,-0.30827 -15.59168,-14.13426 -33.86524,-30.72442 l -33.22467,-30.16393 -7.04124,5.05893 c -25.3014,18.17835 -55.41144,29.69892 -86.44427,33.07493 -12.09038,1.31529 -37.65482,0.49737 -49.3719,-1.57963 -32.47541,-5.75668 -62.4064,-19.99516 -87.36942,-41.56253 -10.04716,-8.68048 -21.51404,-21.18126 -28.33054,-30.88494 -2.59484,-3.69391 -5.05977,-7.1834 -5.47763,-7.75443 -0.61978,-0.84698 -2.30907,-0.38718 -9.17058,2.4961 l -8.41085,3.53433 0.33742,9.94898 c 1.55638,45.89043 -29.09399,88.48676 -73.54421,102.20801 -10.57387,3.26402 -19.33776,4.54572 -31.05868,4.54227 -21.81194,-0.006 -40.103721,-5.40244 -57.94869,-17.09462 -23.263494,-15.24245 -39.661642,-39.5191 -45.573642,-67.46954 -2.338238,-11.0546 -2.344969,-29.63321 -0.01469,-40.55219 8.133461,-38.11094 34.098622,-67.53579 70.276513,-79.6404 11.462069,-3.83505 20.256489,-5.18746 33.549959,-5.15933 27.59726,0.0584 52.23796,10.09355 72.47247,29.51512 l 7.30911,7.01546 8.53124,-3.52415 c 6.4495,-2.6642 8.42849,-3.80222 8.11016,-4.66375 -0.2316,-0.62678 -1.30695,-6.09686 -2.38969,-12.15574 -1.73148,-9.68925 -1.97582,-13.16664 -2.0285,-28.8699 -0.0675,-20.13539 0.86915,-28.19888 5.27062,-45.37228 5.91816,-23.09108 17.65703,-46.62693 32.85868,-65.87999 4.51484,-5.7181 19.97145,-21.50451 26.51382,-27.07953 l 3.94135,-3.35861 -8.11989,-14.66377 c -7.61249,-13.74745 -8.23858,-14.63896 -10.01923,-14.26666 -7.44276,1.55614 -20.96273,2.17182 -29.45125,1.34116 -47.27367,-4.62602 -84.83757,-38.8598 -94.13077,-85.78592 -1.99389,-10.06816 -1.78653,-29.25533 0.42882,-39.67831 1.77558,-8.353948 5.65242,-19.559602 9.22957,-26.67724 8.04097,-15.999548 23.04531,-32.233908 39.10691,-42.312803 9.15844,-5.74706 23.34253,-11.248343 35.15115,-13.63334 9.34944,-1.888314 30.71376,-1.843836 39.66557,0.08258 20.88014,4.493368 38.02244,13.560344 52.8665,27.962358 15.74916,15.280162 25.67273,33.332971 30.40113,55.305265 1.91086,8.87954 1.97079,30.3257 0.11041,39.50617 -3.66174,18.06963 -12.04028,35.46599 -23.46778,48.72615 -2.02946,2.35493 -3.68994,4.61104 -3.68994,5.01356 0,0.60023 14.80541,28.01708 15.65272,28.98591 0.14164,0.16196 4.4555,-0.94988 9.58636,-2.47076 18.79048,-5.56982 32.04739,-7.4476 52.2538,-7.40146 35.43606,0.0809 67.605,9.86064 96.86282,29.44739 l 6.07461,4.06666 38.3086,-38.3086 38.30859,-38.3086 -2.50561,-5.56838 c -3.39877,-7.55333 -6.48384,-16.7952 -8.13104,-24.35799 -1.92283,-8.82824 -1.9556,-31.8033 -0.0579,-40.59068 9.3573,-43.329422 42.15309,-75.461333 85.27099,-83.544859 5.38847,-1.010205 10.91063,-1.412584 18.99335,-1.383975 17.88056,0.06329 30.9609,3.147057 46.64045,10.995767 29.46437,14.748977 49.78997,41.175714 56.86413,73.933067 1.89128,8.7577 1.89128,32.51 0,41.26769 -6.97111,32.28018 -27.10365,58.77906 -55.76076,73.39355 -15.90666,8.11204 -30.14389,11.55892 -47.74382,11.55892 -16.16738,0 -32.13403,-3.64189 -45.46114,-10.3694 l -4.53562,-2.28957 -38.24949,38.24386 c -21.03721,21.03412 -38.24948,38.49494 -38.24948,38.80182 0,0.30688 1.667,3.04319 3.70444,6.0807 25.78812,38.44596 35.27962,86.9769 26.19112,133.91779 -3.63927,18.79635 -12.92352,42.8068 -22.28237,57.62549 -3.18964,5.05043 -3.2341,5.20867 -1.83234,6.52023 0.79015,0.7393 14.76996,13.41394 31.06626,28.16585 16.29629,14.75192 30.88639,28.01011 32.42244,29.46263 l 2.79281,2.64096 7.4636,-3.80094 c 8.62103,-4.39037 18.97554,-7.92586 28.73615,-9.81177 10.07666,-1.94698 28.76449,-1.78069 38.50542,0.34265 32.6822,7.12407 59.51699,27.67984 74.15835,56.80619 3.11812,6.20293 7.27318,18.31055 8.98478,26.18117 1.76364,8.10987 1.99301,31.66026 0.3883,39.86564 -9.64264,49.30492 -51.4515,85.13056 -101.02101,86.56399 -5.2909,0.153 -10.98735,0.12964 -12.65876,-0.0519 z m 19.75308,-62.698 c 12.07759,-2.5695 23.49195,-11.76544 29.08744,-23.4342 6.28861,-13.11418 6.32962,-25.55221 0.12687,-38.47686 -7.4355,-15.49331 -21.99716,-24.59326 -39.32,-24.57206 -12.89634,0.0158 -22.04262,3.71017 -31.01251,12.5266 -17.57218,17.27157 -17.69768,44.35094 -0.28731,61.99472 11.23908,11.38975 25.17315,15.41522 41.40551,11.9618 z M 135.5342,559.51572 c 14.56116,-3.43237 26.57208,-14.79545 31.69035,-29.98106 2.10517,-6.24595 1.98382,-19.15285 -0.24674,-26.24238 -4.83424,-15.36493 -18.41327,-27.07153 -34.73368,-29.94419 -6.04181,-1.06346 -9.66759,-0.98297 -15.98302,0.35481 -16.982553,3.59736 -30.74605,17.14546 -34.260283,33.72409 -4.929804,23.25669 9.628444,46.61675 32.504003,52.1557 5.52514,1.33782 15.2005,1.30701 21.02937,-0.0669 z m 281.34707,-40.21995 c 27.75656,-4.18391 50.45235,-15.86518 69.86549,-35.95899 22.07444,-22.84845 33.41755,-51.13591 33.41755,-83.33678 0,-25.41536 -6.7407,-47.46459 -20.90332,-68.37607 -5.82848,-8.60591 -21.4971,-24.45221 -30.07229,-30.41332 -13.09461,-9.10283 -28.72687,-15.79716 -45.6226,-19.53738 -6.08227,-1.34643 -9.82827,-1.60584 -23.5661,-1.63199 -14.11662,-0.0269 -17.381,0.19753 -24.04388,1.6528 -43.11111,9.41609 -76.66492,39.18185 -90.23965,80.05206 -10.12066,30.47091 -7.86436,63.49807 6.27251,91.81515 17.71153,35.47735 50.73961,59.52225 90.17695,65.65006 9.11115,1.4157 25.61733,1.45586 34.71534,0.0845 z M 262.78402,166.53765 c 19.26275,-6.25618 32.36379,-27.15891 29.42143,-46.94194 -2.74918,-18.48413 -15.09896,-32.591275 -32.56108,-37.194501 -5.61258,-1.479543 -16.81007,-1.479543 -22.42264,0 -15.1759,4.000548 -27.35527,16.205272 -31.27783,31.342941 -1.53525,5.92474 -1.53112,16.54973 0.009,22.51846 4.399,17.05099 19.66581,30.37348 37.16225,32.42942 6.52411,0.76663 12.78773,0.0806 19.66912,-2.15438 z m 422.49613,1.2554 c 18.96272,-4.08109 33.80817,-22.8823 33.80817,-42.81679 0,-19.89662 -14.46637,-38.257672 -33.79031,-42.887417 -2.07944,-0.498205 -6.70286,-0.905828 -10.27427,-0.905828 -12.42056,0 -22.02331,3.910105 -30.75832,12.524351 -17.17798,16.940494 -17.81212,43.573494 -1.45643,61.168734 11.06736,11.90615 26.02723,16.45595 42.47116,12.91695 z"
     id="path7527"
     transform="scale(0.04)" />
</svg>
