<?xml version="1.0" encoding="UTF-8" standalone="no"?>
<!-- Uploaded to: SVG Repo, www.svgrepo.com, Generator: SVG Repo Mixer Tools -->

<svg
   width="800px"
   height="800px"
   viewBox="0 0 24 24"
   fill="none"
   version="1.1"
   id="svg197"
   sodipodi:docname="package.svg"
   inkscape:version="1.2.2 (732a01da63, 2022-12-09)"
   xmlns:inkscape="http://www.inkscape.org/namespaces/inkscape"
   xmlns:sodipodi="http://sodipodi.sourceforge.net/DTD/sodipodi-0.dtd"
   xmlns="http://www.w3.org/2000/svg"
   xmlns:svg="http://www.w3.org/2000/svg">
  <defs
     id="defs201" />
  <sodipodi:namedview
     id="namedview199"
     pagecolor="#505050"
     bordercolor="#eeeeee"
     borderopacity="1"
     inkscape:showpageshadow="0"
     inkscape:pageopacity="0"
     inkscape:pagecheckerboard="0"
     inkscape:deskcolor="#505050"
     showgrid="false"
     inkscape:zoom="1.31625"
     inkscape:cx="337.32194"
     inkscape:cy="399.62013"
     inkscape:window-width="3440"
     inkscape:window-height="1369"
     inkscape:window-x="-8"
     inkscape:window-y="-8"
     inkscape:window-maximized="1"
     inkscape:current-layer="svg197" />
  <path
     d="M20.5 7.27783L12 12.0001M12 12.0001L3.49997 7.27783M12 12.0001L12 21.5001M21 12.0001V7.94153C21 7.59889 21 7.42757 20.9495 7.27477C20.9049 7.13959 20.8318 7.01551 20.7354 6.91082C20.6263 6.79248 20.4766 6.70928 20.177 6.54288L12.777 2.43177C12.4934 2.27421 12.3516 2.19543 12.2015 2.16454C12.0685 2.13721 11.9315 2.13721 11.7986 2.16454C11.6484 2.19543 11.5066 2.27421 11.223 2.43177L3.82297 6.54288C3.52345 6.70928 3.37368 6.79248 3.26463 6.91082C3.16816 7.01551 3.09515 7.13959 3.05048 7.27477C3 7.42757 3 7.59889 3 7.94153V16.0586C3 16.4013 3 16.5726 3.05048 16.7254C3.09515 16.8606 3.16816 16.9847 3.26463 17.0893C3.37368 17.2077 3.52346 17.2909 3.82297 17.4573L11.223 21.5684C11.5066 21.726 11.6484 21.8047 11.7986 21.8356C11.9315 21.863 12.0685 21.863 12.2015 21.8356C12.3516 21.8047 12.4934 21.726 12.777 21.5684L13 21.4445M7.5 4.50008L16.5 9.50008M22 21.5001L21 20.5001M22 18.0001C22 19.6569 20.6569 21.0001 19 21.0001C17.3431 21.0001 16 19.6569 16 18.0001C16 16.3432 17.3431 15.0001 19 15.0001C20.6569 15.0001 22 16.3432 22 18.0001Z"
     stroke="#000000"
     stroke-width="2"
     stroke-linecap="round"
     stroke-linejoin="round"
     id="path195" />
  <path
     style="fill:#a9b7c6;fill-rule:evenodd;stroke:#ff6647;stroke-width:1.14857;stroke-linecap:round;stroke-linejoin:round"
     d="m 388.41953,760.51836 c -5.88354,-1.07235 -12.86501,-3.65603 -20.43129,-7.56114 C 354.30351,745.89425 101.7549,605.31578 96.48623,601.82855 82.037785,592.26539 71.350585,576.08135 68.312699,559.16429 c -1.513942,-8.43068 -1.513942,-309.8979 0,-318.32858 3.037894,-16.91711 13.725259,-33.10136 28.173531,-42.66418 4.3244,-2.86217 234.28159,-131.006737 266.06592,-148.266304 17.16972,-9.323517 25.72154,-11.613131 40.86665,-10.941397 10.83114,0.480396 17.55816,2.374591 28.49003,8.022221 13.86541,7.163153 266.33297,147.69598 271.60494,151.1854 10.88039,7.20153 20.03479,18.57269 24.73926,30.72993 4.6251,11.95214 4.56463,10.57233 4.33745,98.97735 l -0.20681,80.47835 -2.44757,5.16741 c -1.5657,3.30557 -4.02933,6.74563 -6.83761,9.54761 -17.34079,17.3019 -45.55656,10.74235 -54.3647,-12.63861 -1.61508,-4.2872 -1.64719,-5.26962 -2.04392,-62.54005 L 666.2868,289.709 549.47768,354.60485 432.66857,419.50069 V 550.4098 c 0,118.67114 0.11234,130.95223 1.20174,131.37026 0.66095,0.25364 2.13736,0.46116 3.28091,0.46116 6.99093,0 17.35681,6.02682 22.58801,13.1329 9.87084,13.40859 8.10413,31.89634 -4.128,43.19732 -6.4537,5.96243 -27.87119,17.40097 -38.89708,20.77397 -4.82692,1.47662 -22.58864,2.21293 -28.29462,1.17295 z M 367.33143,548.21187 V 419.50068 L 252.80152,355.90662 C 189.81007,320.92989 137.16049,291.64256 135.80247,290.82367 l -2.46914,-1.48891 v 129.10952 129.10953 l 116.42925,64.6845 c 64.03609,35.57647 116.68566,64.68455 116.99905,64.68463 0.31339,8e-5 0.5698,-57.9199 0.5698,-128.71107 z m 73.63732,-208.6087 c 22.17754,-12.32558 40.3228,-22.63906 40.3228,-22.91886 0,-0.66096 -230.14251,-128.5235 -231.33219,-128.5235 -1.0235,0 -81.61089,44.48998 -81.6517,45.07756 -0.0355,0.51114 231.17309,129.07533 231.82538,128.90716 0.28211,-0.0727 18.65818,-10.21679 40.83571,-22.54236 z m 150.4318,-83.57075 c 22.17509,-12.32558 40.30569,-22.58199 40.29022,-22.79202 -0.045,-0.61044 -230.60651,-128.3971 -231.66293,-128.3971 -1.65953,0 -81.27676,44.40804 -81.04458,45.20418 0.29564,1.01378 230.05179,128.76888 231.20171,128.5589 0.49347,-0.0901 19.04048,-10.24839 41.21558,-22.57396 z"
     id="path443"
     transform="scale(0.03)" />
  <path
     style="fill:#a9b7c6;fill-rule:evenodd;stroke:#ff6647;stroke-width:1.14857;stroke-linecap:round;stroke-linejoin:round"
     d="m 726.68566,748.86548 c -8.05791,-1.83338 -11.14984,-3.97737 -24.01861,-16.65476 l -12.24273,-12.06066 -6.37075,2.62604 c -44.97309,18.53803 -95.63517,11.24261 -134.00609,-19.29708 -6.46024,-5.14175 -17.01597,-16.00721 -22.4776,-23.13714 -19.57152,-25.54982 -29.40686,-58.94031 -26.6691,-90.54025 1.55761,-17.97834 5.46617,-32.30325 13.0235,-47.73135 20.18177,-41.20056 58.68921,-68.54456 104.39008,-74.12705 10.45627,-1.27727 29.76655,-0.53546 40.28284,1.54746 68.96392,13.65943 115.55108,78.28329 106.45521,147.67047 -2.61026,19.9122 -9.90724,39.53843 -20.77892,55.88778 l -3.23357,4.8628 9.82397,9.95202 c 10.03506,10.16583 11.95678,12.91211 14.10454,20.15637 4.71532,15.90456 -4.36698,33.48339 -20.39858,39.48158 -5.35745,2.00448 -12.63061,2.5591 -17.88419,1.36377 z m -76.35328,-84.06034 c 18.85695,-4.9065 34.19602,-17.51712 43.20982,-35.52386 4.90965,-9.80793 6.15629,-15.69043 6.16514,-29.09135 0.006,-8.92591 -0.31628,-12.94877 -1.33117,-16.62222 -5.555,-20.10682 -17.65138,-34.85819 -35.88804,-43.76499 -10.85613,-5.30214 -14.6653,-6.08015 -29.62963,-6.05176 -12.46708,0.0237 -13.16606,0.1085 -20.13295,2.44374 -22.26033,7.46146 -38.30586,24.73755 -44.61892,48.04082 -0.99455,3.67115 -1.333,7.76492 -1.31903,15.95441 0.0206,12.09074 1.22735,18.04952 5.61493,27.7261 8.79399,19.39475 27.4189,33.98626 48.47787,37.97955 7.92529,1.50283 21.40322,1.00382 29.45198,-1.09044 z"
     id="path445"
     transform="scale(0.03)" />
</svg>
