<?xml version="1.0" encoding="UTF-8" standalone="no"?>
<!-- Uploaded to: SVG Repo, www.svgrepo.com, Generator: SVG Repo Mixer Tools -->

<svg
   fill="#000000"
   height="800px"
   width="800px"
   version="1.1"
   viewBox="0 0 24 24"
   enable-background="new 0 0 24 24"
   xml:space="preserve"
   id="svg491"
   sodipodi:docname="process.svg"
   inkscape:version="1.2.2 (732a01da63, 2022-12-09)"
   xmlns:inkscape="http://www.inkscape.org/namespaces/inkscape"
   xmlns:sodipodi="http://sodipodi.sourceforge.net/DTD/sodipodi-0.dtd"
   xmlns="http://www.w3.org/2000/svg"
   xmlns:svg="http://www.w3.org/2000/svg"><defs
   id="defs495" /><sodipodi:namedview
   id="namedview493"
   pagecolor="#505050"
   bordercolor="#eeeeee"
   borderopacity="1"
   inkscape:showpageshadow="0"
   inkscape:pageopacity="0"
   inkscape:pagecheckerboard="0"
   inkscape:deskcolor="#505050"
   showgrid="false"
   inkscape:zoom="1.31625"
   inkscape:cx="337.32194"
   inkscape:cy="399.62013"
   inkscape:window-width="3440"
   inkscape:window-height="1369"
   inkscape:window-x="-8"
   inkscape:window-y="-8"
   inkscape:window-maximized="1"
   inkscape:current-layer="svg491" />
<g
   id="soa">
	<g
   id="g480">
		<path
   d="M19,17h-2v-2.1c-0.4-0.1-0.7-0.2-1-0.4l-1.5,1.5l-1.4-1.4l1.5-1.5c-0.2-0.3-0.3-0.7-0.4-1H12v-2h2.1    c0.1-0.4,0.2-0.7,0.4-1l-1.5-1.5l1.4-1.4L16,7.6c0.3-0.2,0.7-0.3,1-0.4V5h2v2.1c0.4,0.1,0.7,0.2,1,0.4l1.5-1.5l1.4,1.4L21.4,9    c0.2,0.3,0.3,0.7,0.4,1H24v2h-2.1c-0.1,0.4-0.2,0.7-0.4,1l1.5,1.5l-1.4,1.4L20,14.4c-0.3,0.2-0.7,0.3-1,0.4V17z M18,9    c-1.1,0-2,0.9-2,2c0,1.1,0.9,2,2,2s2-0.9,2-2C20,9.9,19.1,9,18,9z"
   id="path478" />
	</g>
	<g
   id="g484">
		<path
   d="M7,12H5V9.9C4.6,9.8,4.3,9.6,4,9.4l-1.5,1.5L1.1,9.5L2.6,8C2.4,7.7,2.2,7.4,2.1,7H0V5h2.1c0.1-0.4,0.2-0.7,0.4-1L1.1,2.5    l1.4-1.4L4,2.6c0.3-0.2,0.7-0.3,1-0.4V0h2v2.1c0.4,0.1,0.7,0.2,1,0.4l1.5-1.5l1.4,1.4L9.4,4c0.2,0.3,0.3,0.7,0.4,1H12v2H9.9    C9.8,7.4,9.6,7.7,9.4,8l1.5,1.5l-1.4,1.4L8,9.4C7.7,9.6,7.4,9.8,7,9.9V12z M6,4C4.9,4,4,4.9,4,6s0.9,2,2,2s2-0.9,2-2S7.1,4,6,4z"
   id="path482" />
	</g>
	<g
   id="g488">
		<path
   d="M9,24H7v-2.1c-0.4-0.1-0.7-0.2-1-0.4l-1.5,1.5l-1.4-1.4L4.6,20c-0.2-0.3-0.3-0.7-0.4-1H2v-2h2.1c0.1-0.4,0.2-0.7,0.4-1    l-1.5-1.5l1.4-1.4L6,14.6c0.3-0.2,0.7-0.3,1-0.4V12h2v2.1c0.4,0.1,0.7,0.2,1,0.4l1.5-1.5l1.4,1.4L11.4,16c0.2,0.3,0.3,0.7,0.4,1    H14v2h-2.1c-0.1,0.4-0.2,0.7-0.4,1l1.5,1.5l-1.4,1.4L10,21.4c-0.3,0.2-0.7,0.3-1,0.4V24z M8,16c-1.1,0-2,0.9-2,2s0.9,2,2,2    s2-0.9,2-2S9.1,16,8,16z"
   id="path486" />
	</g>
</g>
<path
   style="fill:#a9b7c6;fill-rule:evenodd;stroke:#ff6647;stroke-width:1.14857;stroke-linecap:round;stroke-linejoin:round"
   d="m 166.76163,364.64852 c 0,-32.64476 -0.0885,-34.99869 -1.32953,-35.37861 -7.07923,-2.16711 -16.50945,-6.5694 -23.6433,-11.03733 l -8.63855,-5.41034 -24.98106,24.97245 L 83.188133,362.76714 60.210496,339.7895 37.232858,316.81187 62.20531,291.83081 87.177763,266.84975 81.767423,258.2112 c -4.467936,-7.13385 -8.87022,-16.56407 -11.037331,-23.6433 -0.37992,-1.24107 -2.733852,-1.32953 -35.378612,-1.32953 H 0.37986705 V 200.18993 167.1415 H 35.327635 c 19.221273,0 34.947769,-0.15108 34.947769,-0.33574 0,-0.18465 1.20703,-4.31784 2.682289,-9.18486 2.489737,-8.21388 6.027014,-16.43191 9.472081,-22.00614 l 1.434621,-2.32127 -8.811259,-9.47675 C 70.206941,118.60452 59.742126,107.39039 51.797992,98.896441 L 37.354111,83.4529 60.457968,60.339728 83.561823,37.226553 108.37696,62.03314 l 24.81513,24.806586 6.33843,-3.128478 c 3.48613,-1.720661 10.95381,-4.669052 16.59484,-6.551985 L 166.38177,73.735745 166.57892,36.867872 166.77609,0 h 33.0412 33.04121 l 0.004,35.137702 0.004,35.137702 6.64386,1.804282 c 8.00886,2.174982 17.4678,5.962859 22.92437,9.180166 3.37323,1.988923 4.20598,2.209755 5.23538,1.388346 0.67326,-0.537231 12.00505,-11.649342 25.18174,-24.693581 l 23.95767,-23.716797 22.93937,22.909824 22.93937,22.909822 -4.70575,5.006861 c -26.96682,28.692333 -44.25564,47.320383 -44.45872,47.902613 -0.13574,0.38915 1.10096,3.40025 2.7482,6.69135 1.64725,3.2911 4.60717,10.82119 6.5776,16.73351 l 3.5826,10.7497 H 363.21589 400 v 33.04843 33.04844 h -35.20738 -35.20737 l -0.95574,3.22887 c -2.25773,7.62758 -5.94525,14.85869 -14.52945,28.49179 -1.04022,1.65202 -0.2177,2.57121 23.79797,26.59515 l 24.87542,24.884 -23.17228,23.16293 -23.17228,23.16293 -24.94833,-24.93974 -24.94834,-24.93975 -6.39051,4.14999 c -7.89351,5.12601 -15.43684,8.91409 -22.15501,11.12573 l -5.1282,1.68821 v 34.88583 34.88582 h -33.04843 -33.04844 z m 47.12606,-99.1262 c 12.64165,-2.65925 23.31683,-8.542 33.07916,-18.22887 7.47472,-7.41695 11.99203,-14.21587 15.57356,-23.43946 16.91836,-43.57019 -15.96118,-90.9199 -63.11021,-90.8848 -30.572,0.0228 -58.60211,22.95429 -64.9512,53.13679 -1.49296,7.09736 -1.46512,20.57086 0.0578,27.98113 5.26721,25.62866 26.69306,46.63358 52.7898,51.75268 5.63276,1.10492 20.65269,0.92539 26.56105,-0.31747 z"
   id="path614"
   transform="scale(0.03)" /><path
   style="fill:#a9b7c6;fill-rule:evenodd;stroke:#ff6647;stroke-width:1.14857;stroke-linecap:round;stroke-linejoin:round"
   d="m 233.60775,764.8623 -0.0105,-35.1377 -8.53652,-2.48771 c -4.69509,-1.36825 -12.29721,-4.35128 -16.8936,-6.62895 l -8.35707,-4.14123 -24.88112,24.85807 -24.88111,24.85807 -23.09373,-23.08442 -23.09373,-23.08442 24.90576,-26.53924 24.90576,-26.53925 -3.32804,-6.59217 c -1.83042,-3.62569 -4.82411,-11.20755 -6.65262,-16.84857 l -3.32458,-10.25641 -36.56509,-0.19723 -36.565103,-0.19723 v -33.04114 -33.04114 h 34.918483 34.91849 l 0.83036,-3.22887 c 2.60788,-10.14075 7.39331,-22.06391 11.43535,-28.49179 1.03864,-1.65168 0.21138,-2.57613 -23.79938,-26.59515 l -24.87542,-24.884 23.1083,-23.09898 23.1083,-23.09898 24.18535,22.66967 c 13.30195,12.46833 25.22045,23.62749 26.48557,24.79816 l 2.30022,2.12848 6.73442,-3.37985 c 3.70394,-1.85893 11.30032,-4.84377 16.88085,-6.63298 l 10.14641,-3.25313 0.002,-36.65717 0.002,-36.65717 h 33.04844 33.04843 v 34.89386 34.89385 l 4.36847,1.22311 c 9.22841,2.58383 16.44382,5.37742 22.81923,8.83492 l 6.62047,3.59041 24.88108,-24.80946 24.88107,-24.80946 22.79224,22.78274 c 12.53573,12.53051 22.79018,22.95582 22.78767,23.16736 -0.005,0.39152 -6.42512,7.31593 -33.89404,36.5543 l -15.42309,16.4166 2.79157,5.23582 c 1.53536,2.87971 4.55754,10.36403 6.71596,16.63183 l 3.9244,11.39602 36.55837,0.19722 36.55837,0.19724 v 33.04113 33.04114 h -34.79526 -34.79526 l -2.54531,8.82829 c -1.41698,4.91473 -4.39425,12.5278 -6.71619,17.17372 l -4.17088,8.34542 24.79751,24.80606 24.7975,24.80605 -22.98217,22.96294 -22.98216,22.96294 -25.83096,-24.32254 c -14.20702,-13.3774 -26.24095,-24.51187 -26.74204,-24.74328 -0.5011,-0.23141 -3.61246,0.93134 -6.91412,2.58387 -3.30167,1.65254 -10.84041,4.61679 -16.75273,6.58722 l -10.7497,3.5826 V 763.21589 800 H 266.6662 233.61776 Z m 51.138,-100.42118 c 14.90356,-4.38617 27.76002,-13.49037 36.72423,-26.00596 12.76367,-17.82032 15.64448,-42.49582 7.37463,-63.1672 -6.25304,-15.63013 -17.50624,-27.7777 -32.54831,-35.13517 -10.2208,-4.99924 -18.03133,-6.78881 -29.62963,-6.78881 -23.3916,0 -43.68582,10.98896 -56.35009,30.51257 -6.99161,10.77849 -10.33598,22.37025 -10.37301,35.95352 -0.0523,19.18255 6.70565,35.11358 20.48454,48.28972 10.28971,9.83959 21.69551,15.65122 35.72365,18.20237 6.85387,1.24644 21.21006,0.31207 28.59399,-1.86104 z"
   id="path616"
   transform="scale(0.03)" /><path
   style="fill:#a9b7c6;fill-rule:evenodd;stroke:#ff6647;stroke-width:1.14857;stroke-linecap:round;stroke-linejoin:round"
   d="m 567.1415,531.12991 v -34.872 l -3.9886,-0.94088 c -7.01067,-1.65378 -16.70756,-5.32501 -23.58516,-8.92931 l -6.68106,-3.5013 -24.85081,24.84225 -24.85081,24.84225 -22.9777,-22.9777 -22.97771,-22.97771 24.83036,-24.83891 24.83036,-24.83891 -3.87724,-8.21243 c -2.13248,-4.51684 -5.13334,-12.22953 -6.66856,-17.13932 l -2.79132,-8.92687 H 436.77662 400 V 369.9905 337.32194 l 35.1377,-0.0106 35.1377,-0.0106 2.39456,-8.53641 c 2.30879,-8.23063 5.87605,-16.79802 9.49527,-22.80451 l 1.73058,-2.8721 -24.8541,-24.86266 -24.85409,-24.86267 22.99462,-22.98534 22.99462,-22.98535 26.52222,23.19842 c 14.58721,12.75913 26.71836,23.10173 26.9581,22.98356 0.23974,-0.11817 2.99999,-1.54504 6.13389,-3.17082 3.13391,-1.62577 10.48433,-4.55888 16.33429,-6.51801 l 10.63627,-3.56205 0.19723,-36.59065 0.19723,-36.59065 h 33.04114 33.04114 v 34.91849 34.91848 l 3.22887,0.84839 c 7.99306,2.1002 17.44021,5.6683 23.58515,8.90789 l 6.68106,3.52223 24.85237,-24.8438 24.85236,-24.8438 23.15487,23.16422 23.15488,23.16421 -4.98423,5.13609 c -2.74133,2.82485 -12.79717,13.51216 -22.34631,23.74958 -9.54914,10.23741 -18.49115,19.81832 -19.87115,21.2909 l -2.50907,2.67742 3.34705,6.66909 c 1.84088,3.66799 4.81038,11.26657 6.59889,16.88573 l 3.25182,10.21665 h 36.69261 36.69259 v 33.04843 33.04843 h -34.89385 -34.89386 l -1.22311,4.36847 c -2.55751,9.13442 -5.32526,16.30795 -8.7814,22.75991 l -3.57819,6.67979 24.97129,25.07565 24.9713,25.07566 -23.0047,22.99543 -23.00471,22.99544 -26.67539,-25.03353 -26.67539,-25.03353 -5.97067,3.13852 c -3.28386,1.72619 -10.75699,4.73793 -16.60694,6.69276 l -10.63628,3.55424 -0.19722,36.55648 -0.19724,36.55648 H 600.18264 567.1415 Z m 49.3696,-99.59759 c 23.79807,-6.07619 42.281,-24.61632 48.33592,-48.48551 2.41264,-9.51092 2.5224,-22.60089 0.26874,-32.04966 -9.01217,-37.78466 -48.69836,-59.86797 -86.03023,-47.87138 -17.00574,5.4648 -31.85116,18.58075 -39.64152,35.02333 -4.67879,9.87521 -6.00716,16.26016 -5.99225,28.80247 0.0116,9.78943 0.24352,11.77755 2.08244,17.85375 7.83753,25.89692 28.55549,44.13119 54.77919,48.21221 6.77494,1.05435 18.95594,0.36377 26.19771,-1.48521 z"
   id="path618"
   transform="scale(0.03)" /></svg>
