<?xml version="1.0" encoding="UTF-8" standalone="no"?>
<!-- Uploaded to: SVG Repo, www.svgrepo.com, Generator: SVG Repo Mixer Tools -->

<svg
   width="800px"
   height="800px"
   viewBox="0 0 24 24"
   fill="none"
   version="1.1"
   id="svg676"
   sodipodi:docname="router.svg"
   inkscape:version="1.2.2 (732a01da63, 2022-12-09)"
   xmlns:inkscape="http://www.inkscape.org/namespaces/inkscape"
   xmlns:sodipodi="http://sodipodi.sourceforge.net/DTD/sodipodi-0.dtd"
   xmlns="http://www.w3.org/2000/svg"
   xmlns:svg="http://www.w3.org/2000/svg">
  <defs
     id="defs680" />
  <sodipodi:namedview
     id="namedview678"
     pagecolor="#505050"
     bordercolor="#eeeeee"
     borderopacity="1"
     inkscape:showpageshadow="0"
     inkscape:pageopacity="0"
     inkscape:pagecheckerboard="0"
     inkscape:deskcolor="#505050"
     showgrid="false"
     inkscape:zoom="1.31625"
     inkscape:cx="337.32194"
     inkscape:cy="399.62013"
     inkscape:window-width="3440"
     inkscape:window-height="1369"
     inkscape:window-x="-8"
     inkscape:window-y="-8"
     inkscape:window-maximized="1"
     inkscape:current-layer="svg676" />
  <path
     d="M9.2255 5.33199C8.92208 5.86298 8.93352 6.58479 9.55278 6.89443C10.3201 7.27808 10.7664 6.59927 11.1323 6.04284C11.4473 5.56389 11.8013 5.11292 12.2071 4.70711C13.0981 3.8161 14.3588 3 16 3C17.6412 3 18.9019 3.8161 19.7929 4.70711C20.1967 5.11095 20.5495 5.5595 20.8632 6.03593C21.2289 6.59127 21.6809 7.27759 22.4472 6.89443C23.0634 6.58633 23.0765 5.86043 22.7745 5.33199C22.7019 5.20497 22.5962 5.02897 22.4571 4.8203C22.1799 4.40465 21.7643 3.8501 21.2071 3.29289C20.0981 2.1839 18.3588 1 16 1C13.6412 1 11.9019 2.1839 10.7929 3.29289C10.2357 3.8501 9.82005 4.40465 9.54295 4.8203C9.40383 5.02897 9.29809 5.20497 9.2255 5.33199Z"
     fill="#0F0F0F"
     id="path664" />
  <path
     d="M14.4762 6.71292C14.2768 6.90911 14.1223 7.10809 14.0182 7.2579C13.6696 7.75991 13.1966 8.23817 12.5294 7.88235C11.9766 7.58751 11.8923 6.8973 12.193 6.39806C12.2358 6.327 12.2967 6.23053 12.3755 6.1171C12.5319 5.89191 12.7649 5.59089 13.0738 5.28708C13.6809 4.68987 14.6689 4 15.9999 4C17.3309 4 18.3189 4.68986 18.9261 5.28706C19.235 5.59087 19.468 5.89188 19.6244 6.11707C19.7031 6.2305 19.764 6.32697 19.8069 6.39803C20.1082 6.8983 20.0212 7.58858 19.4705 7.88233C18.8032 8.23829 18.3304 7.76001 17.9817 7.25793C17.8776 7.10812 17.7231 6.90913 17.5236 6.71294C17.1141 6.31014 16.6021 6 15.9999 6C15.3977 6 14.8857 6.31013 14.4762 6.71292Z"
     fill="#0F0F0F"
     id="path666" />
  <path
     d="M5 18C4.44772 18 4 18.4477 4 19C4 19.5523 4.44772 20 5 20C5.55228 20 6 19.5523 6 19C6 18.4477 5.55228 18 5 18Z"
     fill="#0F0F0F"
     id="path668" />
  <path
     d="M7 19C7 18.4477 7.44771 18 8 18C8.55229 18 9 18.4477 9 19C9 19.5523 8.55229 20 8 20C7.44771 20 7 19.5523 7 19Z"
     fill="#0F0F0F"
     id="path670" />
  <path
     d="M10 19C10 18.4477 10.4477 18 11 18C11.5523 18 12 18.4477 12 19C12 19.5523 11.5523 20 11 20C10.4477 20 10 19.5523 10 19Z"
     fill="#0F0F0F"
     id="path672" />
  <path
     fill-rule="evenodd"
     clip-rule="evenodd"
     d="M15 8C15 7.44771 15.4477 7 16 7C16.5523 7 17 7.44771 17 8V15H20C21.6569 15 23 16.3431 23 18V20C23 21.6569 21.6569 23 20 23H4C2.34315 23 1 21.6569 1 20V18C1 16.3431 2.34315 15 4 15H15V8ZM20 17C20.5523 17 21 17.4477 21 18V20C21 20.5523 20.5523 21 20 21H4C3.44772 21 3 20.5523 3 20V18C3 17.4477 3.44772 17 4 17H20Z"
     fill="#0F0F0F"
     id="path674" />
  <path
     style="fill:#a9b7c6;fill-rule:evenodd;stroke:#ff6647;stroke-width:1.14857;stroke-linecap:round;stroke-linejoin:round"
     d="m 324.26763,231.71037 c -10.29778,-3.36448 -18.53562,-11.27918 -21.32092,-20.48456 -1.67713,-5.54291 -1.6242,-15.73153 0.11259,-21.67215 3.32931,-11.3878 18.96617,-35.64443 37.22152,-57.73979 9.36873,-11.33945 30.11588,-32.104752 40.79619,-40.831909 39.04155,-31.90185 79.3866,-49.794711 125.66563,-55.732175 13.36237,-1.714353 39.82347,-1.714019 53.18139,6.72e-4 26.31297,3.377667 48.43504,9.871608 71.74951,21.062102 27.57615,13.236011 50.40123,29.70979 74.56268,53.81489 17.53777,17.49686 29.9835,32.71709 43.11598,52.72767 12.51291,19.06652 15.57993,26.57914 15.55204,38.09455 -0.0197,8.12774 -1.72357,13.64307 -6.02526,19.50315 -7.84029,10.6806 -24.41379,15.50688 -35.29234,10.27727 -8.65796,-4.16211 -15.02258,-10.95808 -27.52835,-29.39406 -19.90442,-29.34305 -38.1038,-49.20694 -60.16085,-65.66318 -11.71019,-8.73668 -19.36358,-13.43976 -31.57764,-19.40471 -45.54541,-22.242915 -97.31672,-22.09458 -142.74804,0.409 -34.99486,17.33407 -62.92324,43.32642 -90.96464,84.65889 -9.43297,13.90402 -14.9939,20.79839 -20.04124,24.84689 -8.1195,6.51271 -17.34667,8.4521 -26.29825,5.52745 z"
     id="path799"
     transform="scale(0.03)" />
  <path
     style="fill:#a9b7c6;fill-rule:evenodd;stroke:#ff6647;stroke-width:1.14857;stroke-linecap:round;stroke-linejoin:round"
     d="m 426.03195,265.54054 c -17.11589,-4.80346 -26.73967,-19.50704 -24.37459,-37.24045 1.20364,-9.02491 7.29387,-19.91469 19.91103,-35.60237 21.57204,-26.82184 50.1452,-46.65587 78.33079,-54.37322 12.4328,-3.40416 18.56971,-4.17077 33.43415,-4.17651 11.96678,-0.005 15.90643,0.28834 23.04084,1.71336 35.93701,7.17805 68.22192,29.0688 94.11755,63.81634 9.71271,13.0328 13.56906,20.8237 14.5436,29.38214 2.031,17.83631 -7.7725,32.12382 -25.08543,36.55919 -6.15948,1.57798 -11.40515,0.87924 -17.9272,-2.38798 -7.30229,-3.65809 -12.72618,-8.8624 -21.61097,-20.73611 -21.74587,-29.06134 -43.12671,-42.65848 -67.07839,-42.65848 -23.95168,0 -45.33252,13.59714 -67.07838,42.65848 -8.98823,12.01194 -14.35527,17.13106 -21.81051,20.80301 -6.41374,3.15899 -12.50403,3.90077 -18.41249,2.2426 z"
     id="path801"
     transform="scale(0.03)" />
  <path
     style="fill:#a9b7c6;fill-rule:evenodd;stroke:#ff6647;stroke-width:1.14857;stroke-linecap:round;stroke-linejoin:round"
     d="m 126.11586,766.06807 c -1.67142,-0.14265 -6.2868,-0.81611 -10.25641,-1.49657 -37.191952,-6.3753 -68.698623,-35.18464 -78.564634,-71.8386 -3.359226,-12.48011 -3.598005,-17.11289 -3.281788,-63.67307 0.326359,-48.05362 0.309803,-47.86696 5.52556,-62.2982 10.551529,-29.19454 33.942726,-51.92149 63.297552,-61.50006 14.96645,-4.88359 1.91642,-4.5968 209.16859,-4.5968 H 500.2849 V 382.62981 c 0,-76.57823 0.27057,-119.47227 0.77036,-122.12725 1.85418,-9.84979 8.66555,-18.62389 18.06352,-23.26861 5.63113,-2.78306 5.99406,-2.85598 14.21455,-2.85598 8.22049,0 8.58343,0.0729 14.21456,2.85598 9.39796,4.64472 16.20934,13.41882 18.06351,23.26861 0.49979,2.65498 0.77037,45.54902 0.77037,122.12725 v 118.03496 h 54.94684 c 47.12308,0 55.96655,0.17474 62.10826,1.22722 20.17927,3.45803 38.53314,12.98499 53.17807,27.6032 11.39126,11.37049 18.80916,23.08356 24.08201,38.02618 5.11258,14.48845 5.11502,14.51966 5.11502,65.717 0,41.47039 -0.1413,46.99822 -1.34369,52.56726 -4.23386,19.60989 -12.59734,35.47664 -26.17499,49.65778 -14.27319,14.90758 -31.33568,24.32993 -52.63327,29.06543 l -7.21747,1.6048 -274.64388,0.0969 c -151.05413,0.0533 -276.0114,-0.0198 -277.68281,-0.16248 z m 552.12855,-67.73402 c 9.92386,-4.0078 17.42899,-11.81405 20.30234,-21.11689 1.47275,-4.7682 1.54822,-6.91703 1.54822,-44.08279 0,-37.29771 -0.0702,-39.27867 -1.54769,-43.66447 -4.15807,-12.34305 -14.28147,-20.83903 -27.02586,-22.68124 -7.20078,-1.04087 -535.84206,-1.04087 -543.04284,0 -12.74439,1.84221 -22.86779,10.33819 -27.02586,22.68124 -1.477471,4.3858 -1.547687,6.36676 -1.547687,43.66447 0,36.99314 0.08121,39.33318 1.527587,44.016 1.71256,5.54463 6.58782,12.69708 10.88151,15.96414 3.59839,2.73802 10.11495,5.71988 14.31553,6.55055 1.80668,0.35728 125.67803,0.60016 275.26968,0.53975 l 271.9848,-0.10984 z"
     id="path803"
     transform="scale(0.03)" />
  <path
     style="fill:#a9b7c6;fill-rule:evenodd;stroke:#ff6647;stroke-width:1.14857;stroke-linecap:round;stroke-linejoin:round"
     d="m 358.23304,665.06888 c -13.37192,-3.59336 -23.39429,-15.71469 -24.1773,-29.24069 -1.017,-17.56799 10.29715,-31.77443 27.91479,-35.05077 3.491,-0.64922 5.80122,-0.62901 9.67429,0.0846 26.90901,4.95818 37.20934,37.27549 17.78567,55.80254 -8.81834,8.41127 -19.98107,11.4184 -31.19745,8.40429 z"
     id="path805"
     transform="scale(0.03)" />
  <path
     style="fill:#a9b7c6;fill-rule:evenodd;stroke:#ff6647;stroke-width:1.14857;stroke-linecap:round;stroke-linejoin:round"
     d="m 258.68946,665.25354 c -12.76426,-3.47485 -22.20905,-13.90047 -24.45431,-26.99387 -3.62043,-21.11269 16.099,-40.9378 37.23577,-37.43532 17.90074,2.96625 30.58967,20.15992 27.62727,37.43532 -3.28675,19.16683 -22.35911,31.90756 -40.40873,26.99387 z"
     id="path807"
     transform="scale(0.03)" />
  <path
     style="fill:#a9b7c6;fill-rule:evenodd;stroke:#ff6647;stroke-width:1.14857;stroke-linecap:round;stroke-linejoin:round"
     d="m 158.595,665.1129 c -5.94505,-1.60086 -9.89387,-3.87152 -14.69215,-8.44831 -10.38158,-9.90235 -12.93009,-24.77999 -6.48025,-37.83034 6.37358,-12.89606 20.85516,-20.47018 34.37547,-17.97896 21.9536,4.04511 33.96648,27.23367 24.27116,46.85081 -2.93451,5.93757 -8.81416,12.0788 -14.19008,14.8214 -7.07253,3.60813 -15.8618,4.58407 -23.28415,2.5854 z"
     id="path809"
     transform="scale(0.03)" />
</svg>
