<?xml version="1.0" encoding="utf-8"?><!-- Uploaded to: SVG Repo, www.svgrepo.com, Generator: SVG Repo Mixer Tools -->
<svg width="800px" height="800px" viewBox="0 0 24 24" fill="none" xmlns="http://www.w3.org/2000/svg">
<path d="M9.2255 5.33199C8.92208 5.86298 8.93352 6.58479 9.55278 6.89443C10.3201 7.27808 10.7664 6.59927 11.1323 6.04284C11.4473 5.56389 11.8013 5.11292 12.2071 4.70711C13.0981 3.8161 14.3588 3 16 3C17.6412 3 18.9019 3.8161 19.7929 4.70711C20.1967 5.11095 20.5495 5.5595 20.8632 6.03593C21.2289 6.59127 21.6809 7.27759 22.4472 6.89443C23.0634 6.58633 23.0765 5.86043 22.7745 5.33199C22.7019 5.20497 22.5962 5.02897 22.4571 4.8203C22.1799 4.40465 21.7643 3.8501 21.2071 3.29289C20.0981 2.1839 18.3588 1 16 1C13.6412 1 11.9019 2.1839 10.7929 3.29289C10.2357 3.8501 9.82005 4.40465 9.54295 4.8203C9.40383 5.02897 9.29809 5.20497 9.2255 5.33199Z" fill="#0F0F0F"/>
<path d="M14.4762 6.71292C14.2768 6.90911 14.1223 7.10809 14.0182 7.2579C13.6696 7.75991 13.1966 8.23817 12.5294 7.88235C11.9766 7.58751 11.8923 6.8973 12.193 6.39806C12.2358 6.327 12.2967 6.23053 12.3755 6.1171C12.5319 5.89191 12.7649 5.59089 13.0738 5.28708C13.6809 4.68987 14.6689 4 15.9999 4C17.3309 4 18.3189 4.68986 18.9261 5.28706C19.235 5.59087 19.468 5.89188 19.6244 6.11707C19.7031 6.2305 19.764 6.32697 19.8069 6.39803C20.1082 6.8983 20.0212 7.58858 19.4705 7.88233C18.8032 8.23829 18.3304 7.76001 17.9817 7.25793C17.8776 7.10812 17.7231 6.90913 17.5236 6.71294C17.1141 6.31014 16.6021 6 15.9999 6C15.3977 6 14.8857 6.31013 14.4762 6.71292Z" fill="#0F0F0F"/>
<path d="M5 18C4.44772 18 4 18.4477 4 19C4 19.5523 4.44772 20 5 20C5.55228 20 6 19.5523 6 19C6 18.4477 5.55228 18 5 18Z" fill="#0F0F0F"/>
<path d="M7 19C7 18.4477 7.44771 18 8 18C8.55229 18 9 18.4477 9 19C9 19.5523 8.55229 20 8 20C7.44771 20 7 19.5523 7 19Z" fill="#0F0F0F"/>
<path d="M10 19C10 18.4477 10.4477 18 11 18C11.5523 18 12 18.4477 12 19C12 19.5523 11.5523 20 11 20C10.4477 20 10 19.5523 10 19Z" fill="#0F0F0F"/>
<path fill-rule="evenodd" clip-rule="evenodd" d="M15 8C15 7.44771 15.4477 7 16 7C16.5523 7 17 7.44771 17 8V15H20C21.6569 15 23 16.3431 23 18V20C23 21.6569 21.6569 23 20 23H4C2.34315 23 1 21.6569 1 20V18C1 16.3431 2.34315 15 4 15H15V8ZM20 17C20.5523 17 21 17.4477 21 18V20C21 20.5523 20.5523 21 20 21H4C3.44772 21 3 20.5523 3 20V18C3 17.4477 3.44772 17 4 17H20Z" fill="#0F0F0F"/>
</svg>