<?xml version="1.0" encoding="UTF-8" standalone="no"?>
<!-- Uploaded to: SVG Repo, www.svgrepo.com, Generator: SVG Repo Mixer Tools -->

<svg
   height="800px"
   width="800px"
   version="1.1"
   id="_x32_"
   viewBox="0 0 512 512"
   xml:space="preserve"
   sodipodi:docname="source.svg"
   inkscape:version="1.2.2 (732a01da63, 2022-12-09)"
   xmlns:inkscape="http://www.inkscape.org/namespaces/inkscape"
   xmlns:sodipodi="http://sodipodi.sourceforge.net/DTD/sodipodi-0.dtd"
   xmlns="http://www.w3.org/2000/svg"
   xmlns:svg="http://www.w3.org/2000/svg"><defs
   id="defs1024" /><sodipodi:namedview
   id="namedview1022"
   pagecolor="#505050"
   bordercolor="#eeeeee"
   borderopacity="1"
   inkscape:showpageshadow="0"
   inkscape:pageopacity="0"
   inkscape:pagecheckerboard="0"
   inkscape:deskcolor="#505050"
   showgrid="false"
   inkscape:zoom="1.31625"
   inkscape:cx="337.32194"
   inkscape:cy="399.62013"
   inkscape:window-width="3440"
   inkscape:window-height="1369"
   inkscape:window-x="-8"
   inkscape:window-y="-8"
   inkscape:window-maximized="1"
   inkscape:current-layer="_x32_" />
<style
   type="text/css"
   id="style1007">
	.st0{fill:#000000;}
</style>

<path
   style="fill:#a9b7c6;fill-rule:evenodd;stroke:#ff6647;stroke-width:1.14857;stroke-linecap:round;stroke-linejoin:round"
   d="M 199.4302,799.18503 C 175.96302,797.58655 151.12194,788.7453 131.81387,775.11962 121.51347,767.85056 105.36754,751.49316 98.629447,741.50047 85.613318,722.19739 78.128005,701.86237 75.638603,679.04229 75.090824,674.02086 74.833808,601.23296 74.833808,451.12112 V 230.57742 L 190.12439,115.28871 305.41497,0 446.72458,0.01625618 c 77.72028,0.0089409 146.09593,0.32614268 151.94589,0.70489269 28.79447,1.86427323 55.39452,12.15766513 76.73314,29.69334913 27.90055,22.928157 45.03957,54.625282 48.95779,90.543212 1.12589,10.32091 1.12589,547.76367 0,558.08458 -3.33246,30.54827 -15.79244,57.35766 -36.74222,79.05609 -12.1151,12.548 -23.05964,20.57254 -38.04653,27.89554 -16.01546,7.82564 -31.81378,11.95389 -50.67427,13.24171 -13.00705,0.88813 -386.38083,0.8408 -399.46818,-0.0509 z m 405.63455,-49.73407 c 33.22849,-5.38887 60.23677,-30.29458 68.66765,-63.32195 l 1.67121,-6.54686 V 400 120.41785 l -1.67121,-6.54686 C 665.29551,80.82008 638.31693,55.94175 605.06475,50.549038 598.83984,49.539505 580.17798,49.388429 461.37067,49.385771 l -136.54005,-0.0031 -0.22655,71.984799 -0.22654,71.98481 -1.71368,5.56609 c -3.84307,12.48242 -9.65836,22.32841 -18.13964,30.71255 -9.4728,9.3643 -19.55757,15.23013 -32.11123,18.67754 l -7.26578,1.99528 -70.46534,0.23386 -70.46534,0.23385 V 463.1581 c 0,211.73246 0.005,212.41039 1.57136,220.09741 6.88205,33.77081 34.65463,60.45582 68.91844,66.2196 4.69512,0.7898 45.45048,1.00125 204.53395,1.06118 174.77691,0.0658 199.53085,-0.0647 205.82448,-1.08538 z"
   id="path1143"
   transform="scale(0.64)" /><path
   style="fill:#a9b7c6;fill-rule:evenodd;stroke:#ff6647;stroke-width:1.14857;stroke-linecap:round;stroke-linejoin:round"
   d="m 177.01804,525.42326 c -2.93587,-1.30486 -5.32378,-3.92421 -6.80134,-7.46051 -1.02362,-2.44987 -1.17532,-9.72745 -1.17163,-56.20995 0.003,-36.41619 0.26939,-54.35075 0.83805,-56.39901 1.67226,-6.02332 8.73666,-10.32737 15.01692,-9.14919 4.23015,0.79359 6.76639,2.43705 9.02533,5.84835 l 2.08603,3.15018 0.23332,21.51999 0.23333,21.51999 h 22.32475 22.32474 l 0.23395,-21.08262 c 0.22289,-20.08555 0.31368,-21.2317 1.91974,-24.23493 5.09653,-9.53019 19.36734,-9.04337 23.84407,0.8134 1.32725,2.92232 1.40804,6.1681 1.41978,57.03977 0.008,33.11101 -0.27643,54.98097 -0.73562,56.63389 -0.84863,3.05474 -4.65913,7.07757 -7.83993,8.27678 -4.86115,1.83272 -10.731,0.68345 -14.40335,-2.82006 -3.79622,-3.62169 -4.35061,-7.4383 -4.35061,-29.95128 v -20.38641 l -22.22222,0.20142 -22.22222,0.2014 -0.37987,22.03229 c -0.40811,23.67053 -0.52652,24.38586 -4.67615,28.24949 -3.53753,3.29371 -10.05125,4.27185 -14.69707,2.20701 z"
   id="path1145"
   transform="scale(0.64)" /><path
   style="fill:#a9b7c6;fill-rule:evenodd;stroke:#ff6647;stroke-width:1.14857;stroke-linecap:round;stroke-linejoin:round"
   d="m 325.16619,525.41891 c -2.83131,-1.26378 -6.10147,-4.69382 -7.16914,-7.51965 -0.53915,-1.42699 -0.80807,-17.7669 -0.80807,-49.09997 v -46.96123 l -13.86514,-0.33109 c -15.18832,-0.36268 -16.90056,-0.79259 -20.58203,-5.16776 -3.58883,-4.26509 -3.54867,-10.22745 0.0981,-14.56138 3.78206,-4.49473 3.15796,-4.4369 47.88039,-4.4369 h 40.93055 l 3.26834,1.72834 c 8.37392,4.42824 8.18227,16.18627 -0.33549,20.58279 -2.60656,1.3454 -4.79352,1.59285 -16.52422,1.86974 l -13.52007,0.31911 -0.0186,45.29987 c -0.0114,27.85213 -0.31538,46.58741 -0.78918,48.64273 -0.42383,1.83858 -1.4699,4.32496 -2.32461,5.52528 -3.23565,4.54405 -10.91483,6.48744 -16.24086,4.11012 z"
   id="path1147"
   transform="scale(0.64)" /><path
   style="fill:#a9b7c6;fill-rule:evenodd;stroke:#ff6647;stroke-width:1.14857;stroke-linecap:round;stroke-linejoin:round"
   d="m 399.62013,525.43019 c -1.25356,-0.55334 -2.91,-1.71391 -3.68097,-2.57904 -3.43212,-3.85131 -3.46796,-4.46354 -3.50315,-59.84526 -0.0371,-58.30559 -0.0614,-57.98892 4.83413,-62.88445 4.61693,-4.61693 12.75028,-5.45342 18.49617,-1.90226 1.39761,0.86377 3.63562,3.19661 4.97335,5.18408 1.33773,1.98747 8.92796,18.3581 16.86718,36.37917 7.93922,18.02108 14.77911,32.76707 15.19976,32.76889 0.42065,0.002 6.03385,-12.21894 12.47378,-27.15721 19.93178,-46.23444 20.23018,-46.74905 28.37061,-48.92628 6.78912,-1.81582 13.53827,1.23763 16.63518,7.52608 l 1.77461,3.60343 v 55.08072 c 0,53.71435 -0.0377,55.14472 -1.51947,57.66038 -2.29332,3.89345 -5.07973,5.60114 -9.77454,5.99046 -5.45849,0.45267 -9.70113,-1.79434 -11.87781,-6.29078 -1.4486,-2.99241 -1.51954,-4.6912 -1.51954,-36.39068 0,-23.25707 -0.24406,-33.17039 -0.812,-32.98108 -0.4466,0.14887 -5.67948,11.59667 -11.62863,25.43957 -5.94914,13.84289 -11.78265,26.43543 -12.96336,27.98341 -4.8885,6.40917 -13.98234,6.54876 -18.88069,0.28983 -1.09635,-1.40088 -7.00963,-14.09175 -13.14062,-28.20195 -6.13099,-14.1102 -11.44493,-25.6549 -11.80875,-25.6549 -0.3652,0 -0.66149,14.58171 -0.66149,32.5552 0,33.96835 -0.17048,35.98826 -3.33411,39.50178 -3.4635,3.84659 -9.55452,5.04254 -14.51964,2.85089 z"
   id="path1149"
   transform="scale(0.64)" /><path
   style="fill:#a9b7c6;fill-rule:evenodd;stroke:#ff6647;stroke-width:1.14857;stroke-linecap:round;stroke-linejoin:round"
   d="m 542.56804,524.64666 c -3.86126,-1.40165 -6.27597,-3.76982 -7.72095,-7.57215 -1.03915,-2.73441 -1.15735,-9.74888 -0.96879,-57.49141 l 0.21477,-54.37701 2.08603,-3.15166 c 2.71793,-4.10637 5.95094,-5.76859 11.28393,-5.80152 5.2343,-0.0323 9.59765,2.52813 11.77246,6.90816 1.37108,2.76135 1.45928,5.45763 1.65482,50.59012 l 0.20656,47.67331 24.86467,0.005 c 13.97367,0.002 26.04414,0.3319 27.55744,0.7523 1.48102,0.41145 3.8521,1.94419 5.26905,3.40612 2.1981,2.26787 2.62123,3.30054 2.88254,7.03497 0.25542,3.65036 0.0109,4.81149 -1.47296,6.99491 -0.97857,1.4399 -2.97464,3.32024 -4.43571,4.17854 -2.5591,1.50333 -3.89598,1.56698 -36.46465,1.73599 -27.36392,0.142 -34.36496,-0.0267 -36.72921,-0.88491 z"
   id="path1151"
   transform="scale(0.64)" /></svg>
